<?xml version="1.0" standalone="no"?>
<!DOCTYPE svg PUBLIC "-//W3C//DTD SVG 20010904//EN"
 "http://www.w3.org/TR/2001/REC-SVG-20010904/DTD/svg10.dtd">
<svg version="1.0" xmlns="http://www.w3.org/2000/svg"
 width="90.000000pt" height="90.000000pt" viewBox="0 0 90.000000 90.000000"
 preserveAspectRatio="xMidYMid meet">
<metadata>
Created by potrace 1.14, written by Peter Selinger 2001-2017
</metadata>
<g transform="translate(0.000000,90.000000) scale(0.100000,-0.100000)"
fill="#000000" stroke="none">
<path d="M0 450 l0 -450 450 0 450 0 0 450 0 450 -450 0 -450 0 0 -450z m490
219 c19 -50 40 -93 45 -95 6 -2 63 2 128 9 64 7 117 10 116 7 0 -3 -45 -34
-99 -70 -55 -36 -99 -69 -99 -75 0 -5 20 -62 44 -125 23 -63 42 -116 40 -118
-3 -3 -74 50 -203 151 -9 7 -39 -10 -110 -65 -53 -41 -102 -77 -109 -81 -12
-8 0 32 51 166 14 37 26 71 26 75 0 4 -45 36 -100 72 -54 36 -99 68 -100 71 0
3 28 2 63 -2 34 -4 90 -10 123 -13 l61 -7 39 96 c22 52 41 95 44 95 3 0 21
-41 40 -91z"/>
</g>
</svg>
