<?xml version="1.0" standalone="no"?>
<!DOCTYPE svg PUBLIC "-//W3C//DTD SVG 20010904//EN"
 "http://www.w3.org/TR/2001/REC-SVG-20010904/DTD/svg10.dtd">
<svg version="1.0" xmlns="http://www.w3.org/2000/svg"
 width="5000.000000pt" height="5000.000000pt" viewBox="0 0 5000.000000 5000.000000"
 preserveAspectRatio="xMidYMid meet">
<metadata>
Created by potrace 1.14, written by Peter Selinger 2001-2017
</metadata>
<g transform="translate(0.000000,5000.000000) scale(0.100000,-0.100000)"
fill="#000000" stroke="none">
<path d="M0 25000 l0 -25000 25000 0 25000 0 0 25000 0 25000 -25000 0 -25000
0 0 -25000z m23345 15741 c3 -10 4 -137 3 -282 l-3 -264 65 -6 c36 -4 210 -7
386 -8 479 -2 564 -13 1092 -149 62 -16 81 -27 125 -69 29 -27 81 -73 117
-101 36 -28 116 -102 179 -165 l113 -115 -16 -648 c-9 -357 -21 -759 -26 -894
-5 -135 -14 -483 -20 -775 -7 -291 -14 -536 -16 -544 -3 -11 -10 -8 -29 9 -14
13 -25 19 -26 14 -2 -32 3 -545 12 -1463 11 -1018 10 -1054 -8 -1071 -10 -10
-80 -59 -155 -110 -122 -81 -138 -95 -138 -120 0 -52 -50 -223 -87 -299 -49
-100 -152 -204 -243 -248 -108 -53 -191 -66 -354 -59 -77 4 -152 7 -166 8 -14
0 -52 -5 -85 -11 -231 -46 -303 -49 -471 -22 -265 43 -306 46 -614 46 -177 -1
-341 -6 -390 -13 -301 -42 -841 -58 -1125 -33 -165 14 -231 12 -782 -21 l-202
-12 -5 -40 c-3 -23 -11 -88 -18 -146 -18 -148 -17 -1000 1 -1170 16 -149 17
-599 1 -1200 -5 -228 -17 -836 -25 -1350 -8 -514 -20 -1135 -26 -1380 -17
-632 -3 -1316 31 -1612 6 -48 28 -156 49 -240 132 -527 145 -656 161 -1598 11
-649 -7 -1579 -40 -2105 -5 -82 -14 -253 -20 -380 -5 -126 -12 -263 -15 -302
-3 -54 -2 -73 8 -73 6 0 63 9 126 20 103 17 228 31 546 60 130 12 538 12 685
0 373 -29 766 -92 970 -155 25 -7 90 -26 145 -41 321 -88 742 -269 1060 -457
286 -169 511 -337 818 -610 l66 -58 108 96 c344 309 759 588 1128 759 61 28
115 54 121 58 7 5 13 166 17 515 4 279 12 705 19 945 l12 437 -50 56 c-79 91
-109 135 -167 246 -103 196 -142 342 -178 659 -18 162 -22 272 -26 651 -3 254
0 574 6 725 22 528 41 953 56 1199 8 138 21 403 30 590 8 187 17 360 20 385 3
25 12 196 20 380 8 184 19 409 25 500 5 91 17 329 25 530 8 201 19 444 25 540
5 96 19 391 30 655 11 264 22 498 25 520 3 22 12 249 20 505 8 256 20 605 26
775 14 397 14 2064 0 2515 -6 190 -18 575 -26 855 -8 281 -17 535 -20 565 -3
30 -14 251 -25 490 -11 239 -22 460 -25 490 -3 30 -12 168 -20 305 -19 314
-55 840 -61 880 -4 29 -17 37 -215 135 -116 58 -214 110 -219 115 -9 11 143
473 189 579 55 125 159 246 266 307 55 32 183 74 257 84 l47 6 26 68 c50 133
154 284 258 375 97 85 969 736 978 730 5 -3 9 -151 9 -329 0 -300 1 -324 18
-329 76 -24 236 -39 462 -45 l255 -6 20 -85 21 -85 1469 1 c809 1 1711 6 2005
13 741 16 2395 59 2510 66 52 3 273 12 490 20 217 8 467 20 555 25 88 6 349
19 580 30 231 11 503 24 605 30 211 11 769 35 1261 52 260 9 432 9 760 0 233
-7 780 -21 1214 -32 435 -10 923 -24 1085 -29 162 -6 447 -14 633 -17 l338 -7
67 65 c37 36 89 82 116 102 52 38 655 346 679 346 7 0 31 -42 55 -97 22 -54
69 -161 102 -238 34 -77 81 -185 105 -240 24 -55 76 -174 115 -265 40 -91 82
-189 95 -219 12 -29 28 -57 36 -61 8 -5 61 -20 119 -34 58 -14 122 -31 144
-37 l38 -11 -4 -301 c-4 -266 -7 -314 -27 -400 -25 -110 -63 -201 -118 -284
l-37 -57 -8 -875 c-4 -482 -12 -1254 -18 -1715 -6 -462 -7 -843 -3 -846 7 -6
41 -16 171 -50 l44 -11 -5 -382 c-4 -338 -7 -395 -26 -495 -49 -255 -133 -420
-298 -585 -111 -110 -217 -186 -362 -258 -69 -34 -127 -63 -128 -64 -1 0 -100
-390 -219 -866 -118 -475 -218 -866 -220 -868 -2 -2 -7 -2 -10 2 -4 3 -147
428 -319 944 -266 800 -332 990 -350 1011 -2 2 -23 9 -48 17 l-45 14 -54 -81
c-29 -45 -56 -85 -59 -90 -5 -8 -143 -44 -404 -106 -313 -75 -628 -110 -1147
-128 l-198 -7 0 -94 c0 -59 -4 -93 -10 -91 -6 2 -37 41 -69 88 l-59 85 -68 0
c-75 -1 -813 -29 -1169 -45 -314 -15 -698 -38 -1005 -60 -146 -11 -303 -23
-350 -26 -47 -3 -155 -12 -240 -19 -85 -8 -227 -19 -315 -25 -88 -6 -221 -18
-295 -27 -185 -22 -450 -23 -560 -1 -47 9 -134 22 -195 28 -60 6 -168 18 -240
26 -187 21 -587 32 -825 23 -222 -8 -385 -32 -492 -73 l-63 -23 -6 -209 c-9
-328 -33 -442 -136 -648 -45 -90 -57 -126 -68 -200 -24 -158 -38 -412 -39
-681 l-1 -260 28 -47 c33 -57 109 -117 192 -152 141 -60 634 -156 945 -185
214 -20 614 -41 780 -41 192 0 746 23 1105 45 559 36 975 37 1220 5 234 -30
419 -85 547 -161 51 -31 57 -33 173 -35 185 -2 281 -28 397 -106 132 -88 214
-257 233 -478 6 -70 14 -89 122 -304 l116 -229 -189 -187 c-114 -112 -218
-205 -262 -234 -98 -65 -216 -113 -320 -131 -47 -8 -88 -17 -91 -20 -2 -3 1
-99 7 -213 7 -114 21 -409 32 -657 11 -247 22 -479 25 -515 3 -36 15 -265 25
-510 26 -578 40 -864 48 -974 l7 -89 95 -37 95 -36 0 -413 0 -414 -75 -44 -75
-45 -1 -187 c-1 -172 -3 -192 -27 -271 -34 -109 -87 -212 -158 -306 -32 -41
-88 -121 -125 -178 l-68 -103 -573 -193 c-315 -105 -577 -189 -583 -185 -5 3
-10 41 -10 86 0 91 5 88 -107 65 -37 -8 -113 -19 -168 -26 -55 -6 -145 -17
-200 -25 -55 -8 -167 -22 -250 -30 -82 -8 -166 -17 -185 -20 -19 -3 -145 -14
-280 -25 -757 -61 -1247 -118 -1465 -170 -44 -10 -109 -24 -145 -30 -36 -6
-81 -15 -100 -20 -39 -10 -307 -62 -411 -80 l-66 -12 -17 -181 c-23 -256 -33
-423 -52 -892 -17 -418 -15 -736 6 -1350 11 -334 12 -842 0 -1120 l-8 -210 99
-100 c54 -55 99 -103 99 -107 0 -4 -23 -8 -52 -10 l-51 -3 149 -170 c210 -240
399 -460 784 -915 1073 -1268 1520 -1757 2126 -2325 163 -154 447 -400 589
-510 177 -138 201 -156 295 -222 784 -554 1467 -844 2260 -960 177 -26 201
-28 580 -27 377 0 404 1 590 28 382 54 550 104 835 250 259 132 495 307 717
532 400 406 689 878 871 1424 196 585 235 1212 111 1780 -38 174 -105 401
-125 424 -4 5 -10 -2 -13 -15 -3 -13 -15 -71 -27 -129 -52 -255 -168 -534
-310 -751 -251 -383 -603 -674 -1030 -852 -136 -57 -247 -91 -423 -128 -246
-52 -614 -52 -880 1 -797 159 -1457 755 -1700 1535 -38 122 -74 289 -86 402
-15 139 -15 448 -1 558 52 391 206 756 463 1096 31 41 110 128 174 193 261
261 568 449 914 558 52 16 120 40 151 54 31 13 63 24 70 24 8 1 32 8 54 16 59
22 257 61 381 76 132 15 547 15 696 0 385 -40 825 -181 1138 -365 416 -244
751 -548 1041 -947 166 -227 257 -378 394 -655 394 -791 569 -1694 526 -2705
-35 -829 -177 -1490 -468 -2185 -357 -853 -950 -1628 -1714 -2241 -448 -360
-995 -690 -1589 -961 -63 -29 -109 -48 -305 -128 -153 -62 -166 -67 -400 -148
-1263 -440 -2697 -634 -4250 -577 -693 26 -1417 108 -2115 241 -379 72 -972
214 -1310 314 -69 21 -141 42 -160 47 -152 41 -631 199 -885 291 -1173 425
-2268 960 -3340 1632 -610 382 -1171 779 -1705 1205 -80 64 -168 129 -196 144
-28 15 -74 54 -103 87 -34 38 -73 70 -111 89 -33 17 -74 43 -92 58 -18 16 -78
63 -133 104 -94 71 -288 259 -349 338 -15 19 -179 188 -365 375 -185 187 -390
396 -454 465 l-117 125 -92 -100 c-144 -156 -453 -468 -678 -684 -696 -666
-1517 -1321 -2353 -1880 -428 -286 -672 -437 -1102 -683 -391 -224 -536 -301
-950 -507 -431 -214 -990 -465 -1250 -561 -27 -10 -86 -33 -130 -50 -89 -35
-115 -45 -330 -125 -303 -114 -678 -237 -1030 -340 -49 -14 -126 -37 -170 -50
-44 -13 -98 -28 -120 -34 -22 -5 -155 -38 -295 -74 -596 -150 -1185 -262
-1695 -322 -71 -9 -137 -18 -145 -20 -8 -2 -114 -14 -235 -25 -121 -11 -263
-24 -315 -30 -410 -39 -1442 -48 -1933 -16 -147 9 -273 19 -280 21 -6 2 -91
11 -187 20 -96 9 -218 22 -270 30 -52 8 -135 19 -185 25 -252 29 -718 119
-1085 210 -308 76 -493 130 -790 230 -881 296 -1695 729 -2340 1244 -408 326
-794 722 -1076 1106 -78 106 -92 126 -149 210 -223 328 -449 763 -584 1130
-18 47 -41 108 -51 135 -11 28 -33 95 -50 150 -17 55 -37 120 -45 145 -40 130
-116 449 -140 587 -8 51 -18 99 -20 105 -7 18 -43 295 -60 458 -22 213 -38
655 -30 880 11 364 24 583 39 670 8 47 20 121 26 165 19 131 89 436 137 595
199 663 505 1243 894 1695 90 105 303 316 404 401 454 382 1024 625 1604 686
143 15 572 15 696 0 193 -23 387 -69 515 -122 25 -10 83 -30 130 -45 479 -149
907 -468 1188 -885 205 -304 332 -646 371 -1002 15 -137 13 -423 -4 -552 -114
-854 -713 -1571 -1540 -1841 -244 -80 -474 -110 -775 -103 -215 6 -334 24
-540 83 -149 43 -230 74 -365 140 -405 197 -758 532 -971 920 -74 136 -118
236 -168 390 -38 119 -57 191 -92 364 -7 33 -15 19 -46 -74 -68 -206 -107
-377 -139 -610 -41 -298 -25 -770 35 -1045 59 -266 107 -438 162 -580 14 -36
37 -94 51 -130 30 -77 157 -340 188 -390 12 -19 46 -75 74 -123 343 -580 876
-1060 1431 -1287 338 -138 884 -210 1428 -188 749 30 1519 281 2237 726 515
320 983 697 1526 1230 181 177 159 124 184 447 8 110 19 236 25 280 23 184 61
751 75 1103 8 207 20 490 27 627 17 338 17 2053 0 2535 -7 195 -14 627 -15
960 l-2 605 27 150 c16 83 38 186 51 230 20 70 22 92 15 180 -4 55 -10 264
-14 465 -5 290 -3 410 10 585 9 121 16 292 16 380 l0 161 54 159 c30 88 70
205 90 260 l36 100 0 248 c0 136 3 247 6 247 4 0 13 -8 20 -17 12 -17 22 -13
141 47 l128 65 9 48 c4 26 7 50 5 52 -2 2 -81 -12 -174 -30 -94 -19 -175 -34
-181 -35 -7 0 -14 12 -16 28 -11 60 -50 251 -63 308 -17 69 -19 212 -5 364 78
831 78 1515 0 1917 -12 59 -66 331 -121 604 -94 473 -106 539 -94 539 3 0 27
-11 54 -24 l48 -25 16 102 c9 56 26 167 37 247 11 80 27 192 36 250 13 88 14
163 9 460 -10 555 -35 1139 -65 1490 -5 63 -14 169 -20 235 -16 184 -39 576
-55 925 -22 478 -39 690 -54 690 -4 0 -72 -13 -152 -29 -260 -54 -471 -71
-849 -70 -184 0 -384 4 -445 10 -60 5 -288 12 -505 15 -311 5 -442 3 -618 -10
-157 -11 -360 -16 -687 -16 -508 0 -583 6 -825 66 -117 29 -440 121 -446 127
-12 12 -90 515 -116 747 -21 188 -22 250 -29 1700 -4 828 -9 1519 -13 1535
-13 69 -27 202 -41 400 -8 116 -22 278 -30 360 -32 334 -29 531 15 795 21 124
72 348 91 398 8 21 5 35 -15 71 -13 26 -35 75 -47 111 -23 62 -24 79 -27 428
l-4 362 181 0 c154 0 181 2 181 15 0 8 5 15 11 15 6 0 17 -7 25 -15 13 -12 49
-15 192 -15 97 0 254 -7 347 -15 94 -8 251 -21 350 -30 99 -8 239 -22 310 -30
386 -43 753 -59 1390 -59 585 -1 631 0 810 22 105 12 215 27 245 32 37 7 180
7 430 0 206 -6 634 -17 950 -25 316 -9 654 -20 750 -26 206 -13 1375 -6 1695
10 116 5 338 15 495 21 157 6 339 16 405 21 66 5 244 18 395 29 151 11 286 22
300 25 14 3 124 14 245 25 l220 20 50 -36 c28 -19 71 -50 97 -68 53 -38 32
-36 563 -61 171 -8 387 -19 480 -25 273 -17 1745 -79 1753 -74 1 0 19 66 38
145 20 79 40 150 44 158 5 10 44 -35 131 -151 l124 -165 290 -7 c160 -3 323
-9 363 -13 l74 -6 281 285 c155 157 285 285 289 286 4 1 9 -6 13 -17z"/>
<path d="M12000 38596 c-38 -52 -75 -98 -80 -101 -5 -3 -137 26 -292 65 -261
65 -291 70 -388 70 -111 0 -280 -17 -495 -49 -151 -22 -282 -38 -377 -47 l-68
-6 0 -146 c1 -161 8 -254 40 -497 20 -157 31 -224 71 -435 21 -109 43 -239 84
-495 35 -220 46 -515 44 -1191 -1 -563 4 -754 21 -754 3 0 56 -9 116 -20 122
-22 327 -44 574 -61 205 -15 1286 -15 1566 0 384 21 954 41 1406 51 l456 10
49 -22 c36 -16 64 -21 110 -19 82 3 252 -38 341 -83 177 -89 269 -191 397
-441 l77 -149 -41 -121 c-43 -128 -51 -181 -92 -570 -20 -197 -20 -208 -5
-685 9 -267 21 -582 26 -700 9 -196 19 -617 51 -2170 14 -691 14 -3588 0
-4530 -29 -1856 -42 -2587 -51 -2840 -5 -151 -17 -599 -25 -995 -8 -396 -20
-841 -25 -990 -6 -148 -17 -682 -25 -1185 -8 -503 -17 -1075 -21 -1270 -6
-350 -6 -355 13 -335 11 11 57 65 104 120 981 1168 1858 2047 2585 2591 147
110 468 328 611 416 l60 36 6 234 c3 128 11 279 18 335 9 82 8 330 -5 1250 -9
631 -21 1346 -26 1588 -6 242 -17 919 -25 1505 -8 586 -19 1272 -25 1525 -6
253 -17 939 -25 1525 -8 586 -19 1265 -25 1510 -5 245 -14 803 -20 1240 -8
614 -14 810 -25 860 -59 275 -68 342 -62 485 3 77 13 202 22 278 16 135 16
141 -4 245 -14 69 -21 146 -21 215 l0 108 107 177 c59 97 157 274 218 392 61
118 118 226 128 240 15 21 17 50 17 206 0 151 3 184 15 194 12 10 94 12 393 6
207 -3 404 -11 437 -16 33 -6 115 -13 183 -16 106 -6 122 -9 122 -24 0 -14 12
-19 58 -23 31 -4 89 -11 127 -16 87 -13 797 -13 1085 -1 300 13 681 40 850 60
41 5 161 16 265 25 105 8 226 20 270 25 100 13 577 40 695 40 l87 0 6 298 c4
163 12 380 17 482 16 305 50 990 60 1215 14 309 24 1244 15 1358 l-7 99 -216
-4 c-241 -5 -229 -2 -414 -93 l-92 -45 -141 0 c-118 0 -154 4 -229 25 l-89 24
-71 -20 c-102 -30 -290 -37 -388 -15 -60 13 -81 14 -104 5 -17 -7 -116 -15
-234 -19 -142 -5 -222 -12 -260 -23 -49 -15 -142 -17 -807 -17 -414 0 -753 4
-753 8 0 4 25 32 55 62 53 52 54 55 33 62 -13 3 -473 6 -1023 7 -993 1 -1923
-10 -2545 -29 -179 -5 -491 -14 -695 -20 -398 -12 -555 -18 -1190 -49 -360
-18 -600 -33 -729 -46 -46 -4 -230 49 -339 99 -70 32 -79 33 -242 40 -94 4
-233 11 -310 16 -77 6 -270 16 -430 25 -159 8 -329 17 -377 20 l-87 6 -71 -95z"/>
<path d="M35680 37910 c-45 -25 -184 -70 -216 -70 -14 0 -24 -6 -24 -14 0 -22
-43 -24 -824 -36 -396 -6 -844 -15 -995 -20 -1663 -58 -2792 -130 -3421 -220
l-195 -28 -106 59 c-176 97 -202 104 -359 103 -125 0 -145 -3 -270 -38 -74
-21 -145 -41 -157 -43 -13 -3 -23 -9 -23 -14 0 -5 68 -110 150 -234 83 -124
150 -229 150 -235 0 -6 -69 -10 -193 -10 l-193 0 -30 -70 c-37 -90 -99 -173
-212 -282 l-89 -88 -111 0 -110 0 -6 -102 c-9 -168 -26 -711 -41 -1378 -8
-344 -19 -776 -25 -960 -5 -184 -14 -603 -20 -930 -6 -327 -17 -872 -25 -1210
-8 -338 -19 -869 -25 -1180 -6 -311 -15 -729 -20 -930 -6 -201 -17 -723 -25
-1160 -8 -437 -19 -952 -25 -1145 -19 -663 -23 -1212 -11 -1345 30 -313 64
-776 81 -1095 26 -502 31 -621 41 -1105 11 -505 6 -2027 -8 -2227 l-6 -93 149
0 c146 0 208 -4 525 -35 560 -54 1145 -214 1647 -451 52 -24 95 -44 97 -44 10
0 330 -175 435 -238 175 -105 471 -302 625 -417 72 -53 134 -99 139 -102 5 -4
6 63 2 163 -3 93 -13 531 -21 974 -8 443 -20 1008 -27 1255 -7 248 -13 532
-13 633 l0 182 -65 21 c-97 32 -188 89 -260 164 -118 120 -175 249 -243 552
-6 25 85 211 156 318 175 267 441 404 813 422 l122 6 47 95 c83 166 196 260
380 313 103 29 288 32 410 5 201 -45 365 -179 435 -354 l23 -59 76 -26 c104
-36 203 -55 351 -68 176 -15 841 -15 1050 -1 492 34 994 101 1350 180 l85 19
2 174 c1 96 8 248 17 339 31 319 15 1811 -24 2330 -11 145 -24 267 -28 271
-14 12 -615 105 -897 139 -315 36 -909 44 -1271 16 -224 -17 -507 -54 -627
-81 -163 -38 -279 -68 -399 -106 l-128 -40 0 -323 c0 -177 -3 -326 -7 -330 -4
-4 -93 79 -198 184 l-190 190 -195 -195 c-107 -107 -199 -195 -205 -195 -6 0
-215 205 -465 455 l-454 454 23 25 23 24 -48 58 c-92 113 -149 275 -161 457
l-6 97 -284 0 c-218 0 -283 3 -283 12 0 7 158 171 352 364 l351 352 24 98 c37
152 53 282 63 494 11 226 22 309 57 440 33 124 74 229 133 343 l47 93 -8 617
-9 616 -44 63 c-24 35 -91 158 -149 273 -93 187 -108 226 -140 351 -20 82 -51
173 -73 218 l-37 77 7 137 c7 151 28 249 76 366 65 156 209 320 381 435 52 35
103 73 114 85 11 12 137 313 279 669 143 356 264 646 269 644 5 -1 20 -30 32
-62 32 -85 99 -252 151 -377 24 -59 44 -110 44 -113 0 -3 22 -58 48 -123 27
-64 61 -150 77 -189 15 -40 31 -73 34 -73 3 0 22 17 44 38 l38 37 222 -112
c143 -72 245 -131 286 -164 l63 -52 232 17 c127 9 314 20 416 26 102 6 300 17
440 25 140 9 397 22 570 30 173 9 380 19 460 24 80 5 244 15 365 21 392 20
681 49 755 75 22 8 123 64 225 124 103 61 192 111 198 111 6 0 50 -38 97 -84
l85 -84 60 19 c33 10 121 31 195 46 123 24 156 27 370 27 209 1 246 -1 335
-22 90 -20 231 -65 321 -102 28 -12 35 -11 60 7 38 26 104 52 184 72 l65 16 3
433 c1 237 6 432 10 432 4 0 234 -227 512 -504 l505 -503 380 -12 c209 -7 490
-15 624 -18 l243 -6 -6 29 c-3 16 -13 110 -21 209 -8 99 -20 221 -26 270 -5
50 -18 182 -29 295 -10 113 -27 289 -36 391 -18 186 -18 186 4 311 21 119 22
152 22 691 l0 565 -47 18 c-27 9 -75 28 -108 42 -54 22 -80 25 -260 32 -110 4
-244 13 -297 20 -110 14 -894 8 -1198 -9 -225 -12 -1872 -13 -2225 -1 -575 20
-942 41 -1133 66 -146 18 -179 17 -222 -6z"/>
<path d="M32160 24791 l-45 -40 56 -56 56 -56 110 -2 111 -2 -23 46 c-27 53
-80 102 -133 125 -71 29 -83 28 -132 -15z"/>
</g>
</svg>
