<?xml version="1.0" standalone="no"?>
<!DOCTYPE svg PUBLIC "-//W3C//DTD SVG 20010904//EN"
 "http://www.w3.org/TR/2001/REC-SVG-20010904/DTD/svg10.dtd">
<svg version="1.0" xmlns="http://www.w3.org/2000/svg"
 width="1024.000000pt" height="1024.000000pt" viewBox="0 0 1024.000000 1024.000000"
 preserveAspectRatio="xMidYMid meet">
<metadata>
Created by potrace 1.14, written by Peter Selinger 2001-2017
</metadata>
<g transform="translate(0.000000,1024.000000) scale(0.100000,-0.100000)"
fill="#000000" stroke="none">
<path d="M0 9799 l0 -440 34 -14 c19 -8 67 -16 108 -17 44 -2 79 -8 87 -16 9
-9 23 -11 40 -6 44 13 131 7 147 -9 4 -4 42 -4 83 -1 64 5 86 2 136 -16 33
-12 64 -26 69 -31 6 -5 24 -9 42 -9 17 0 43 -9 57 -20 19 -16 38 -20 79 -18
30 1 66 -4 83 -13 26 -12 30 -21 33 -58 2 -28 0 -41 -7 -37 -14 9 -53 -12 -46
-24 3 -5 -2 -18 -12 -29 -10 -11 -23 -26 -29 -33 -6 -7 -26 -25 -44 -40 -20
-17 -30 -33 -27 -42 3 -9 2 -18 -3 -21 -18 -11 -10 -25 13 -26 12 0 16 -3 10
-6 -7 -2 -13 -13 -13 -22 0 -17 -40 -46 -64 -46 -16 0 -66 -41 -66 -54 0 -6 5
-20 12 -30 9 -15 17 -17 34 -11 29 11 38 -5 43 -77 0 -13 7 -23 15 -23 7 0 21
-11 30 -25 9 -14 21 -25 27 -25 6 0 31 -14 55 -31 33 -23 44 -35 39 -47 -4
-10 -8 -22 -9 -27 -1 -6 -13 -28 -26 -50 -30 -48 -33 -62 -29 -142 1 -40 3
-43 30 -43 29 0 38 -13 19 -25 -6 -4 -8 -26 -5 -53 3 -26 2 -53 -3 -61 -12
-17 -187 -31 -204 -16 -8 7 -9 6 -4 -2 6 -12 -4 -16 -30 -12 -4 0 -10 -4 -14
-11 -4 -6 -14 -12 -22 -13 -17 -3 -140 -85 -150 -101 -5 -8 -8 -7 -8 2 0 6 -9
12 -20 12 -11 0 -20 -7 -20 -15 0 -8 -4 -15 -10 -15 -5 0 -10 -9 -10 -19 0
-11 -12 -28 -27 -39 -28 -20 -132 -53 -165 -53 -10 0 -18 -4 -18 -8 0 -13 -59
-19 -64 -7 -2 6 -5 3 -5 -6 -1 -18 -8 -20 -88 -22 -24 0 -43 -3 -43 -7 0 -4
-9 -5 -20 -2 -20 5 -20 0 -20 -369 0 -207 3 -377 5 -380 14 -13 56 6 61 28 6
22 15 29 37 25 4 0 7 3 7 8 0 5 8 7 19 4 20 -5 55 23 46 38 -4 5 1 9 9 9 9 0
16 6 16 13 0 8 -13 11 -38 11 -35 -2 -38 0 -37 27 0 19 9 35 25 46 14 9 30 23
36 31 6 8 29 15 51 17 22 1 45 5 51 9 18 11 296 -2 344 -15 55 -17 63 -28 66
-97 2 -30 4 -33 25 -26 12 5 34 7 49 6 15 0 30 3 33 8 4 6 26 10 51 10 34 0
43 3 38 13 -6 9 -4 9 7 1 8 -7 22 -8 34 -3 53 21 269 -1 298 -30 7 -7 17 -7
30 1 11 5 22 6 26 2 3 -5 52 -9 108 -9 57 0 103 -3 103 -6 0 -4 26 -5 58 -2
77 6 92 8 125 22 35 14 47 14 47 1 0 -13 57 -13 65 0 3 6 32 7 69 4 41 -4 66
-2 70 5 4 6 18 11 31 11 13 0 30 7 39 15 8 8 21 15 30 15 8 0 17 4 21 9 3 5
54 25 113 45 87 29 127 37 212 40 58 3 128 10 155 16 196 44 368 41 478 -7 20
-9 37 -22 37 -28 0 -18 40 -26 75 -16 17 4 46 4 65 0 60 -12 120 -17 120 -8 0
18 57 14 96 -7 22 -13 64 -25 93 -27 29 -2 56 -9 60 -15 3 -6 20 -13 36 -16
17 -3 42 -8 58 -12 17 -3 27 -1 27 6 0 6 10 10 23 9 12 -2 29 1 37 6 29 19 80
32 107 29 15 -2 22 -1 16 2 -10 4 -10 10 2 27 20 28 20 58 0 51 -10 -4 -15 0
-15 10 0 18 -46 40 -67 32 -8 -3 -12 -2 -9 3 8 13 -69 51 -103 51 -15 0 -31 3
-34 6 -14 14 -123 54 -165 60 -31 5 -46 12 -52 28 -9 23 -45 57 -53 50 -4 -4
-15 32 -22 71 -5 32 72 114 123 129 12 4 22 11 22 15 0 14 142 61 200 66 30 2
77 9 104 15 26 5 52 8 56 5 5 -3 11 -1 15 5 3 5 13 10 21 10 22 0 106 41 132
63 12 11 22 17 22 12 0 -4 8 1 18 11 9 10 23 20 30 22 7 1 23 11 35 22 11 11
26 20 31 20 6 0 29 21 50 45 22 25 43 45 48 45 5 0 18 9 30 20 12 11 30 20 40
20 10 0 21 7 24 15 4 8 10 13 14 10 5 -3 12 4 15 16 5 15 9 18 15 9 6 -9 12
-8 26 6 27 27 94 65 104 59 4 -3 7 3 6 13 0 9 4 16 11 15 6 -2 15 6 18 17 4
11 15 20 26 20 10 0 19 3 20 8 0 4 2 18 4 32 12 74 11 117 -2 143 -7 15 -18
27 -23 27 -6 0 -10 7 -10 16 0 9 -10 25 -22 35 -11 11 -18 22 -15 25 3 4 -1
20 -9 36 -8 16 -12 33 -9 38 4 6 0 13 -9 16 -8 3 -22 17 -31 31 -10 15 -12 22
-4 18 8 -5 10 -4 5 4 -4 7 -17 9 -29 6 -15 -4 -18 -3 -9 3 11 7 11 10 -2 15
-9 4 -16 14 -15 24 0 16 1 16 9 -2 8 -19 9 -19 9 3 1 12 -5 25 -13 28 -11 4
-13 12 -6 29 6 15 5 26 -1 29 -5 2 -4 3 3 2 7 -2 12 -8 11 -14 -2 -6 4 -9 12
-6 8 4 12 10 9 15 -3 5 -1 9 4 9 5 0 20 20 33 45 14 27 29 43 37 40 7 -2 16 3
19 12 4 10 18 27 32 39 23 20 24 25 14 58 -6 21 -7 38 -2 42 14 8 11 36 -3 29
-7 -4 -4 1 7 10 12 9 16 19 10 23 -6 4 -11 15 -11 25 -2 19 30 23 55 8 16 -10
55 4 85 31 11 10 29 18 40 18 12 0 34 7 50 15 15 8 35 15 44 15 8 0 23 7 33
16 9 8 23 17 31 18 76 14 128 29 128 37 0 5 11 9 24 9 13 0 34 8 47 19 13 10
49 21 79 25 30 4 59 11 65 16 15 12 86 21 99 12 6 -4 22 -7 36 -8 78 -5 151
-45 165 -91 3 -13 10 -23 15 -23 5 0 16 -15 25 -34 18 -37 50 -45 70 -18 12
15 93 21 114 8 10 -6 12 -5 7 3 -6 9 9 10 61 4 37 -4 86 -7 108 -6 107 6 181
15 190 24 5 5 20 9 35 9 14 0 34 7 44 15 10 8 23 12 29 8 5 -3 12 -1 16 5 4 7
43 19 86 27 44 9 87 18 95 20 8 2 25 4 38 4 15 1 21 5 16 13 -4 6 -3 8 3 5 25
-15 186 58 208 94 8 11 112 90 120 89 3 0 19 16 36 35 17 19 37 35 44 35 7 0
30 16 51 35 22 19 47 35 56 35 9 0 21 7 26 17 7 11 31 18 83 23 90 9 123 17
159 35 15 8 30 11 34 8 3 -4 6 -1 6 5 0 6 8 13 18 16 15 5 56 59 57 76 1 5 50
77 83 120 10 14 25 42 31 63 7 20 16 37 20 37 4 0 7 10 8 22 1 11 6 24 10 27
4 3 9 18 10 34 l2 27 -2262 0 c-1517 0 -2257 -4 -2247 -10 13 -9 13 -12 -1
-23 -17 -14 -35 -52 -19 -42 6 3 10 1 10 -5 0 -14 -25 -40 -38 -40 -6 0 -8 -9
-5 -20 3 -11 9 -17 14 -14 5 3 9 0 9 -5 0 -6 -10 -9 -22 -7 -13 1 -23 8 -23
14 0 7 -4 12 -10 12 -5 0 -10 -6 -10 -12 0 -7 -4 -16 -9 -19 -18 -14 7 -31 36
-25 19 4 30 1 34 -7 3 -8 24 -14 52 -16 26 -1 49 -6 50 -12 9 -23 35 -39 56
-33 11 4 23 10 26 14 9 14 135 -1 156 -19 31 -25 37 -51 18 -72 -10 -11 -13
-19 -8 -19 5 0 3 -4 -4 -9 -18 -11 -32 -77 -25 -113 4 -22 -2 -37 -30 -72 -20
-24 -33 -46 -30 -50 4 -3 -3 -6 -14 -6 -11 0 -32 -9 -45 -20 -40 -31 -194 -83
-213 -72 -15 8 -13 11 8 25 39 25 25 60 -44 110 -53 38 -74 67 -49 67 6 0 10
-4 10 -10 0 -5 4 -10 10 -10 5 0 7 7 4 15 -4 11 0 15 16 15 21 0 22 1 8 18 -9
9 -13 22 -11 29 2 7 -4 25 -15 40 -11 15 -28 53 -38 83 -18 52 -44 94 -44 71
0 -6 -8 -11 -18 -11 -10 0 -22 -3 -26 -7 -3 -4 -15 -7 -25 -8 -17 -1 -19 5
-17 54 2 30 8 57 14 59 6 2 21 19 32 37 18 29 24 33 45 25 12 -5 25 -6 28 -3
3 3 22 5 41 5 28 0 36 4 36 18 0 11 -5 22 -11 25 -12 8 34 35 60 35 14 0 14 2
1 10 -10 6 -570 10 -1532 10 l-1518 0 0 -441z m1879 386 c4 -22 29 -44 51 -45
8 0 23 -7 33 -14 24 -19 10 -53 -47 -111 -45 -45 -45 -46 -42 -105 3 -46 1
-60 -10 -60 -8 0 -14 -4 -14 -9 0 -5 -25 -7 -57 -5 -60 4 -90 22 -95 57 -2 11
-10 25 -20 30 -27 18 -48 -9 -48 -60 0 -39 -5 -49 -35 -76 -20 -17 -35 -40
-35 -53 0 -22 -22 -34 -67 -34 -12 0 -28 -6 -35 -13 -29 -29 -138 -41 -138
-16 0 5 -6 9 -14 9 -9 0 -12 7 -9 21 8 30 -16 67 -59 91 -40 23 -49 47 -20 54
9 3 25 18 34 35 10 16 32 37 50 47 44 24 93 73 95 97 2 24 -17 38 -34 24 -14
-13 -36 -2 -27 13 4 6 10 5 15 -3 7 -11 9 -11 9 3 0 11 6 15 21 11 14 -4 20
-1 17 8 -3 15 3 19 27 19 8 0 15 -4 15 -10 0 -5 -7 -7 -15 -4 -8 4 -15 1 -15
-5 0 -6 4 -11 9 -11 11 0 80 27 104 41 10 5 23 7 29 3 6 -4 8 -3 4 4 -3 6 0
17 8 25 17 17 116 32 125 19 9 -13 59 -24 63 -13 7 18 83 62 102 59 12 -2 22
-12 25 -23z m2449 -680 c-2 -3 15 -25 39 -50 24 -25 43 -51 43 -59 0 -7 6 -19
14 -25 8 -7 12 -20 9 -31 -3 -12 2 -22 16 -29 12 -7 21 -18 21 -26 0 -18 -20
-20 -20 -2 0 6 -5 4 -11 -5 -6 -11 -22 -18 -40 -18 -17 0 -28 -4 -25 -8 3 -5
-32 -7 -76 -6 -67 3 -84 0 -94 -14 -7 -9 -14 -14 -14 -10 0 4 -12 1 -27 -7
-18 -9 -32 -11 -44 -4 -10 5 -28 9 -41 9 -13 0 -30 9 -38 19 -10 15 -18 17
-32 10 -12 -6 -18 -6 -18 0 0 6 -12 14 -27 17 -36 9 -49 23 -57 60 -5 22 -2
35 8 44 9 7 14 16 11 20 -3 5 5 17 18 27 13 10 25 23 27 28 6 19 55 41 88 38
17 -1 40 -2 50 -2 162 3 188 5 200 16 7 7 16 13 19 13 4 0 4 -2 1 -5z m-3248
-376 c0 -11 7 -28 16 -36 14 -15 13 -18 -8 -39 -19 -20 -43 -30 -80 -33 -5 -1
-8 -8 -8 -16 0 -8 -6 -15 -14 -15 -8 0 -16 -6 -19 -12 -2 -7 -7 -10 -11 -7
-10 9 20 79 33 79 6 0 11 6 11 14 0 7 9 16 20 19 24 6 27 27 4 27 -8 0 -13 4
-9 10 3 5 12 7 19 4 7 -3 16 2 19 10 9 23 27 20 27 -5z m-1025 -1919 c3 -6 -1
-7 -9 -4 -18 7 -21 14 -7 14 6 0 13 -4 16 -10z m1205 -64 c0 -3 -4 -8 -10 -11
-5 -3 -10 -1 -10 4 0 6 5 11 10 11 6 0 10 -2 10 -4z"/>
<path d="M5060 9094 c0 -7 -9 -15 -20 -19 -16 -5 -18 -12 -13 -38 6 -36 35
-67 42 -45 6 19 34 37 46 30 5 -3 4 2 -4 12 -8 9 -10 16 -5 15 32 -6 44 2 42
29 -2 25 -6 27 -45 28 -29 1 -43 -3 -43 -12z"/>
<path d="M788 8843 c-10 -2 -18 -9 -18 -14 0 -14 16 -11 30 6 7 8 11 14 9 14
-2 -1 -12 -3 -21 -6z"/>
<path d="M10200 8492 c0 -4 -15 -8 -33 -10 -17 -1 -41 -4 -52 -6 -11 -3 -26
-5 -33 -5 -7 -1 -10 -6 -6 -13 5 -8 0 -9 -14 -6 -12 4 -25 2 -28 -3 -3 -5 -25
-9 -49 -9 -24 0 -46 -4 -49 -8 -3 -5 -43 -12 -88 -15 -46 -4 -84 -11 -86 -17
-5 -13 -68 -40 -93 -40 -11 0 -19 -5 -19 -11 0 -6 -9 -9 -20 -6 -11 3 -18 1
-15 -3 3 -5 -11 -12 -32 -16 -21 -4 -40 -11 -43 -15 -3 -4 -26 -10 -50 -12
-25 -2 -55 -9 -68 -16 -12 -6 -22 -9 -22 -6 0 3 -9 1 -20 -5 -11 -6 -37 -13
-57 -16 -20 -2 -42 -9 -49 -15 -7 -6 -18 -8 -23 -5 -5 4 -13 1 -16 -4 -4 -6
-17 -10 -28 -9 -24 2 -48 -5 -90 -27 -16 -7 -34 -14 -41 -14 -16 0 -71 -50
-79 -73 -4 -10 -12 -15 -17 -12 -6 4 -10 3 -9 -2 4 -21 -2 -33 -16 -33 -9 0
-26 -11 -38 -24 -12 -12 -39 -29 -59 -35 -21 -7 -38 -17 -38 -22 0 -19 -5 -25
-47 -52 -24 -16 -43 -34 -43 -40 0 -7 -12 -23 -25 -36 -14 -12 -22 -27 -19
-32 3 -5 -2 -9 -10 -9 -8 0 -21 -9 -29 -21 -16 -22 -78 -59 -101 -59 -8 0 -16
-7 -20 -15 -3 -8 -14 -15 -24 -15 -10 0 -22 -4 -28 -9 -12 -11 -146 -56 -158
-53 -4 2 -18 -3 -30 -11 -11 -7 -34 -14 -50 -15 -17 -1 -33 -7 -37 -13 -4 -8
-8 -7 -12 2 -4 10 -6 10 -6 2 -1 -7 -13 -13 -28 -13 -32 0 -93 -47 -93 -72 0
-9 -4 -20 -10 -23 -5 -3 -10 -11 -10 -16 0 -6 5 -7 10 -4 6 3 10 -3 10 -14 0
-12 6 -21 14 -21 8 0 36 -10 63 -22 26 -12 50 -22 53 -23 33 -11 60 -27 60
-35 0 -5 7 -10 15 -10 8 0 15 -3 15 -8 0 -10 51 -36 115 -59 43 -15 85 -18
300 -18 138 -1 382 -2 544 -3 296 -3 333 0 511 39 25 6 60 12 79 14 18 3 39
10 47 16 8 6 14 8 14 5 0 -4 7 0 16 8 16 16 39 22 30 8 -2 -4 28 -4 67 0 40 4
109 10 155 14 l82 7 0 561 c0 555 0 562 -20 563 -11 1 -20 -1 -20 -5z"/>
<path d="M5095 7176 c-99 -47 -154 -144 -140 -247 5 -34 3 -54 -6 -65 -15 -19
0 -75 41 -148 l29 -51 -37 -56 c-20 -31 -44 -69 -53 -86 -11 -20 -31 -35 -65
-47 -113 -43 -252 -115 -286 -148 -19 -20 -43 -58 -52 -85 -18 -52 -89 -353
-112 -473 -7 -41 -18 -88 -24 -104 -5 -16 -10 -46 -10 -66 0 -21 -9 -58 -20
-83 -19 -42 -19 -50 -7 -80 10 -23 13 -55 8 -107 -8 -105 -5 -371 6 -458 6
-55 13 -78 28 -88 12 -9 24 -36 30 -67 10 -50 10 -52 -12 -52 -21 0 -27 7 -24
28 0 4 -13 7 -30 7 -18 0 -28 4 -24 10 4 6 12 7 18 3 11 -6 -7 18 -38 53 -14
15 -48 15 -35 -1 6 -7 3 -11 -9 -12 -14 -1 -17 4 -14 18 6 20 -10 23 -98 19
-21 -1 -40 3 -43 8 -3 6 -20 7 -41 2 -22 -5 -37 -4 -42 3 -3 5 -1 7 5 3 6 -3
14 -2 17 4 4 6 21 10 38 9 18 -1 47 1 65 5 20 4 32 2 32 -4 0 -6 5 -8 11 -5 6
5 4 12 -8 21 -17 13 -17 13 2 14 26 0 6 20 -23 23 -11 0 -19 5 -16 9 3 4 10 6
17 4 7 -1 9 -1 4 1 -4 3 -5 9 -2 14 7 10 -24 0 -42 -14 -7 -5 -13 -6 -13 -1 0
5 -5 2 -11 -6 -9 -12 -10 -11 -6 8 3 12 1 20 -4 16 -5 -3 -9 0 -9 5 0 6 -5 11
-11 11 -6 0 -9 -8 -7 -18 3 -10 0 -19 -6 -19 -6 0 -23 -4 -37 -8 -17 -4 -30
-2 -34 6 -5 7 -4 10 2 6 6 -4 19 1 30 11 16 14 18 20 8 29 -7 6 -16 8 -21 3
-14 -12 -111 -23 -117 -12 -4 5 -1 9 6 10 71 8 113 17 119 26 5 7 8 7 8 -3 0
-7 6 -11 15 -7 8 3 15 1 15 -4 0 -29 62 6 66 37 2 11 -4 13 -24 8 -15 -4 -30
-12 -34 -18 -7 -11 -12 -2 -9 16 0 4 -3 7 -9 7 -5 0 -10 9 -10 20 0 23 15 27
23 6 6 -14 47 -19 47 -5 0 11 -64 34 -87 31 -13 -2 -23 1 -23 6 0 5 -39 9 -87
9 -49 1 -114 3 -146 6 -48 5 -58 3 -53 -9 3 -8 1 -14 -5 -14 -6 0 -9 -7 -5
-15 4 -11 -2 -15 -25 -15 -17 0 -28 4 -24 9 3 5 1 12 -5 16 -5 3 -10 -2 -10
-12 0 -11 -3 -14 -8 -7 -4 6 -17 16 -29 23 -20 10 -23 9 -23 -8 0 -11 6 -22
13 -24 7 -4 6 -6 -4 -6 -9 -1 -19 7 -22 17 -5 21 -44 32 -108 32 -22 0 -39 5
-39 10 0 6 5 10 11 10 5 0 7 5 4 10 -10 16 51 12 65 -5 7 -8 17 -12 23 -8 6 4
3 9 -9 14 -10 3 18 6 64 5 71 -2 85 0 93 16 5 10 18 18 28 18 14 0 17 6 14 24
-4 19 1 26 24 34 18 7 22 11 10 11 -11 1 -15 6 -11 13 4 7 3 8 -5 4 -6 -4 -9
-12 -6 -17 4 -5 -3 -9 -15 -9 -12 0 -18 -4 -15 -10 3 -5 1 -10 -4 -10 -6 0
-11 4 -11 10 0 5 -9 14 -20 20 -16 9 -18 8 -14 -5 4 -8 2 -15 -4 -15 -5 0 -9
-8 -8 -17 1 -14 -8 -19 -42 -21 -34 -3 -42 0 -37 10 6 10 5 11 -6 1 -7 -7 -22
-13 -33 -13 -20 0 -20 0 0 16 10 8 13 13 7 9 -7 -3 -13 -1 -13 4 0 6 -4 11
-10 11 -5 0 -10 -9 -10 -20 0 -17 -7 -20 -37 -20 -38 1 -79 21 -66 33 3 4 -1
7 -10 7 -10 0 -26 6 -37 13 -17 10 -22 9 -29 -2 -6 -9 -11 -10 -15 -2 -4 6
-14 11 -22 11 -8 0 -12 -4 -9 -10 3 -5 2 -10 -4 -10 -5 0 -12 4 -16 10 -3 5
-25 7 -48 4 -23 -3 -64 -7 -92 -9 -71 -6 -109 -16 -117 -29 -5 -7 -8 -6 -8 4
0 9 -3 11 -8 5 -4 -6 -20 -15 -36 -20 -16 -6 -32 -17 -34 -25 -4 -12 -2 -11
11 2 10 10 25 14 38 11 19 -5 19 -7 5 -15 -9 -5 -20 -7 -25 -3 -5 3 -12 1 -16
-5 -3 -5 -24 -10 -45 -10 -21 0 -42 -5 -46 -11 -4 -7 -29 -10 -65 -7 -47 3
-59 1 -62 -11 -4 -13 -5 -12 -6 2 -1 16 -3 16 -23 3 -27 -16 -114 -7 -111 11
2 7 -6 11 -17 10 -10 -1 -16 -5 -14 -9 3 -4 -2 -8 -10 -8 -9 0 -16 4 -16 9 0
6 -9 8 -20 6 -11 -2 -20 0 -20 6 0 5 -7 9 -15 9 -8 0 -15 -4 -15 -9 0 -14 -34
-8 -48 9 -9 10 -11 10 -6 1 5 -10 1 -11 -14 -7 -11 4 -35 8 -54 10 -18 1 -43
8 -55 14 -12 7 -33 13 -47 14 -14 1 -22 6 -18 10 4 4 34 3 67 -2 33 -5 78 -11
100 -14 22 -2 49 -8 60 -12 18 -7 18 -6 5 8 -9 9 -44 18 -85 23 -51 5 -75 13
-89 28 -20 20 -20 20 2 15 15 -4 22 -2 22 8 0 8 7 14 15 14 8 0 15 -5 15 -11
0 -5 5 -7 10 -4 6 4 9 9 7 13 -2 4 4 15 14 24 10 9 19 13 21 9 2 -5 13 -11 25
-15 17 -6 20 -3 16 12 -2 10 -10 19 -16 20 -7 0 -21 2 -32 4 -14 2 -19 -2 -17
-15 2 -12 -3 -16 -17 -14 -11 2 -24 7 -28 12 -5 4 -3 5 4 1 6 -3 14 -2 17 3 4
5 -2 12 -11 14 -12 3 -8 5 9 6 29 1 46 17 26 24 -10 3 -10 7 1 20 7 9 17 15
21 12 5 -3 10 0 12 6 3 8 10 6 21 -5 9 -10 17 -13 17 -7 0 6 7 11 15 11 8 0
15 -4 15 -10 0 -5 8 -10 18 -10 11 0 13 3 5 8 -14 9 -11 44 5 50 7 2 12 9 12
15 0 5 -3 7 -7 4 -3 -4 -13 -1 -22 6 -14 10 -14 10 -4 -4 11 -13 10 -19 -5
-32 -22 -20 -42 -9 -31 18 4 11 8 14 8 8 1 -7 5 -13 10 -13 5 0 7 8 4 19 -4
15 4 20 41 30 29 7 46 17 46 26 0 8 -4 15 -10 15 -5 0 -10 5 -10 11 0 5 4 7
10 4 6 -3 10 -1 10 4 0 14 -13 14 -28 -1 -16 -16 -16 4 1 21 10 11 10 13 -1 7
-6 -4 -12 -2 -12 4 0 7 -6 8 -19 1 -10 -6 -21 -7 -25 -3 -4 3 -4 -1 0 -11 5
-13 2 -16 -10 -11 -9 3 -16 1 -16 -6 0 -6 -4 -8 -10 -5 -15 10 -12 -2 6 -20
14 -13 19 -14 25 -3 7 10 9 9 9 -5 0 -10 5 -15 10 -12 6 4 8 11 5 16 -4 5 -2
9 3 9 6 0 12 -6 15 -14 7 -19 -19 -29 -43 -16 -27 15 -34 12 -19 -6 11 -14 11
-18 -4 -29 -9 -6 -14 -15 -10 -18 3 -4 -1 -7 -9 -7 -11 0 -14 7 -11 24 4 17
10 23 21 19 12 -5 12 -1 -4 19 -10 14 -22 24 -26 21 -5 -2 -8 0 -8 6 0 5 6 12
13 15 9 5 9 7 0 12 -7 3 -13 10 -13 15 0 11 23 7 32 -6 5 -6 8 -3 8 7 0 9 -5
20 -10 23 -5 3 -10 2 -10 -2 0 -5 -9 -9 -21 -9 -17 0 -18 2 -5 11 16 12 12 55
-5 55 -13 0 -11 -14 4 -29 10 -10 9 -12 -3 -9 -16 3 -40 23 -40 33 0 3 4 4 8
1 5 -3 14 4 22 14 10 14 18 16 31 10 14 -8 16 -6 12 9 -3 12 2 20 16 24 13 3
19 1 15 -5 -4 -6 -1 -8 7 -6 8 3 13 11 11 17 -5 23 31 6 41 -19 4 -12 6 -11 6
3 1 10 5 16 10 12 5 -3 13 0 17 6 4 7 3 9 -4 5 -6 -3 -13 -2 -17 4 -10 16 17
12 36 -6 16 -14 19 -14 38 5 11 11 42 25 68 30 47 9 48 9 11 10 -21 0 -38 6
-38 12 0 6 9 8 23 4 17 -6 19 -4 11 5 -20 20 -74 23 -95 4 -11 -10 -19 -12
-19 -6 0 7 5 12 12 12 24 0 -4 14 -35 18 -57 6 -82 10 -82 13 0 1 -16 3 -35 4
-19 2 -35 4 -35 5 0 7 -63 11 -202 15 -90 2 -167 7 -173 10 -5 3 -10 1 -10 -4
0 -6 -5 -11 -11 -11 -5 0 -8 4 -4 10 5 9 -40 8 -75 -1 -8 -2 -14 2 -13 9 4 18
-14 14 -21 -5 -6 -14 -9 -15 -15 -4 -6 9 -15 10 -27 4 -18 -8 -61 -8 -129 1
-16 2 -36 -1 -43 -7 -6 -5 -12 -6 -12 -2 0 4 -7 2 -15 -5 -18 -15 -20 1 -2 19
10 11 7 12 -18 6 -16 -3 -27 -3 -23 1 11 10 -38 45 -55 38 -8 -3 -18 0 -23 7
-5 8 -3 10 7 4 8 -5 11 -5 7 0 -4 4 -33 9 -65 11 -32 2 -76 6 -98 10 -115 17
-269 6 -287 -20 -4 -6 -8 -8 -8 -4 0 4 -10 4 -22 -1 -16 -6 -26 -4 -34 7 -9
12 -13 12 -19 2 -6 -9 -4 -11 5 -5 9 6 11 4 6 -4 -6 -9 -12 -9 -25 3 -11 10
-21 12 -31 6 -8 -6 -35 -7 -59 -4 -33 5 -42 4 -37 -5 11 -17 -91 -11 -105 6
-14 16 -84 17 -195 3 -107 -13 -204 -18 -199 -10 2 4 -10 7 -28 8 -18 1 -43 4
-57 8 -14 3 -32 7 -40 8 -9 1 -21 5 -28 10 -13 8 -116 6 -139 -2 -10 -3 -13
-600 -13 -2938 l0 -2934 5120 0 5120 0 0 1861 c0 1693 -1 1861 -16 1855 -9 -3
-25 1 -37 9 -16 11 -24 12 -36 2 -12 -9 -13 -9 -7 1 4 7 2 12 -5 12 -6 0 -9 8
-6 20 6 23 -27 48 -38 29 -4 -6 -13 -8 -20 -5 -8 3 -16 0 -19 -7 -2 -7 -5 -2
-5 10 -1 12 -5 25 -11 28 -5 3 -7 0 -4 -8 7 -18 -33 -30 -57 -16 -11 6 -20 6
-24 -1 -3 -5 -17 2 -31 18 -14 15 -23 21 -19 15 3 -7 2 -13 -4 -13 -6 0 -8 -8
-5 -17 5 -15 3 -15 -11 2 -9 11 -20 19 -25 18 -5 -2 -29 1 -54 6 -37 7 -46 6
-46 -6 0 -8 5 -11 10 -8 5 3 10 -3 10 -14 0 -12 -5 -21 -11 -21 -5 0 -7 5 -4
10 4 6 -7 13 -24 16 -17 4 -29 9 -27 13 3 4 -4 7 -14 7 -10 0 -16 -4 -14 -8 3
-4 1 -8 -5 -8 -5 0 -12 4 -15 9 -7 11 -76 20 -76 9 0 -4 -8 -8 -17 -7 -11 0
-13 3 -5 6 6 2 12 9 12 15 0 6 -7 8 -15 5 -8 -4 -17 -1 -21 5 -4 7 -12 2 -21
-13 -8 -13 -12 -16 -9 -7 6 20 -10 23 -34 8 -10 -6 -21 -3 -36 11 l-22 20 -16
-22 c-16 -23 -16 -23 -16 -2 0 28 -23 46 -38 31 -8 -8 -13 -7 -18 6 -5 13 -9
14 -20 5 -11 -9 -14 -8 -14 1 0 8 -3 11 -6 7 -4 -3 -19 0 -34 8 -22 11 -30 12
-33 2 -4 -9 -6 -9 -6 1 -1 7 -5 10 -11 7 -5 -3 -10 -1 -10 4 0 6 16 11 35 11
43 0 44 9 5 35 -17 11 -28 25 -26 32 3 6 -2 14 -10 17 -9 3 -12 11 -8 17 4 8
3 9 -4 5 -7 -4 -17 3 -24 18 -6 14 -15 26 -20 26 -4 0 -8 6 -8 13 0 7 -14 25
-32 41 -24 20 -28 30 -19 36 11 6 11 9 0 13 -12 5 -11 7 1 16 12 8 12 13 2 23
-10 10 -15 10 -22 -2 -9 -13 -10 -13 -10 0 -1 28 -17 41 -60 51 -30 7 -46 6
-56 -2 -14 -12 -14 -3 1 85 4 21 4 21 -10 2 -8 -11 -12 -29 -9 -39 4 -13 2
-17 -5 -13 -6 4 -11 15 -11 24 0 15 -2 15 -10 2 -8 -13 -10 -13 -10 1 0 19
-26 33 -35 18 -4 -5 -11 -6 -17 -3 -7 5 -8 2 -4 -5 5 -7 14 -10 22 -7 17 6 58
-30 44 -39 -5 -3 -7 -13 -4 -23 5 -14 4 -15 -5 -2 -7 9 -14 11 -18 5 -11 -14
-33 -17 -33 -4 0 5 -4 7 -10 4 -20 -12 -50 -14 -50 -2 0 9 -3 8 -8 -1 -6 -9
-12 -5 -20 13 -10 22 -15 24 -32 15 -19 -10 -24 -6 -21 13 1 5 -3 6 -9 2 -5
-3 -10 0 -10 7 0 9 -3 9 -10 -2 -6 -9 -10 -11 -10 -3 0 7 -7 10 -15 7 -8 -4
-15 -1 -15 5 0 9 -5 9 -20 1 -11 -6 -20 -7 -20 -2 0 13 -39 22 -46 11 -3 -5
-12 -5 -22 0 -9 4 -23 6 -30 4 -7 -3 -19 1 -27 7 -11 9 -15 9 -15 1 0 -6 -3
-10 -7 -10 -5 1 -19 1 -33 0 -24 -2 -25 -2 -5 -17 20 -15 20 -15 0 -12 -11 2
-26 7 -32 11 -7 5 -17 6 -22 2 -9 -5 -47 39 -51 60 -3 18 -6 15 -8 -11 -1 -15
2 -23 8 -19 9 6 14 -8 11 -28 -1 -5 3 -6 9 -2 5 3 10 1 10 -5 0 -7 9 -9 23 -5
20 5 20 5 4 -6 -25 -15 -51 -18 -58 -7 -3 5 -14 2 -23 -7 -16 -16 -18 -16 -30
0 -8 12 -19 16 -30 12 -19 -8 -76 18 -76 34 0 6 -4 7 -10 4 -6 -3 -10 -1 -10
4 0 6 -7 11 -16 11 -8 0 -13 4 -9 9 3 5 1 12 -5 16 -5 3 -10 18 -11 33 0 24
-1 25 -9 7 -8 -19 -9 -19 -9 3 -1 13 -8 30 -16 38 -8 9 -15 20 -15 25 0 5 14
-4 30 -21 17 -18 35 -28 42 -24 8 5 5 12 -9 24 -19 15 -19 17 -4 28 13 9 12
10 -9 7 -26 -5 -46 15 -27 27 17 11 29 10 22 -2 -3 -5 0 -10 8 -10 21 0 28 12
16 27 -9 9 -8 13 0 13 6 0 11 7 11 16 0 8 4 12 10 9 6 -4 7 1 3 11 -4 11 -8
13 -11 6 -6 -20 -22 -14 -22 9 0 19 -1 19 -16 5 -17 -18 -74 -22 -74 -6 0 6
-13 4 -30 -5 -36 -19 -40 -19 -40 1 0 10 -5 12 -12 7 -23 -14 -37 -11 -43 6
-9 31 -85 49 -85 21 0 -5 -7 -7 -16 -3 -13 5 -13 7 -2 14 10 7 9 9 -5 9 -10 0
-16 4 -13 9 3 4 18 7 33 5 24 -4 25 -3 8 5 -17 8 -18 10 -2 10 19 1 24 21 5
21 -6 0 -3 6 8 14 10 8 16 18 12 22 -5 4 -16 0 -25 -8 -26 -22 -62 -32 -59
-16 1 7 5 19 9 26 5 6 5 12 1 12 -4 0 0 8 9 18 15 17 15 18 -4 19 -10 1 -17
-2 -14 -8 3 -5 2 -15 -2 -23 -7 -12 -11 -12 -26 -1 -20 15 -13 45 12 45 9 1
-2 7 -24 15 -21 8 -41 12 -43 10 -7 -6 9 -26 17 -21 4 3 8 -1 8 -9 0 -8 -5
-11 -10 -8 -5 3 -13 -1 -18 -8 -7 -11 -9 -11 -9 -1 0 19 -48 64 -55 52 -3 -6
-1 -10 4 -10 6 0 11 -4 11 -10 0 -5 -7 -7 -15 -4 -8 4 -15 1 -15 -5 0 -6 -4
-11 -10 -11 -5 0 -6 8 -3 17 5 13 2 15 -11 10 -14 -6 -16 -3 -10 15 6 20 5 21
-10 6 -9 -9 -16 -21 -16 -27 0 -6 -4 -11 -9 -11 -5 0 -9 6 -8 13 1 31 -4 50
-10 43 -5 -4 -9 -12 -9 -17 -1 -5 -2 -11 -3 -15 0 -3 -13 8 -28 23 -18 19 -24
22 -20 10 5 -13 3 -17 -5 -14 -7 2 -20 -3 -28 -12 -8 -9 -21 -16 -27 -15 -7 1
-17 2 -23 3 -5 0 -7 9 -4 19 5 15 4 15 -6 2 -9 -11 -13 -12 -17 -2 -8 19 -26
14 -20 -7 3 -14 0 -17 -14 -14 -11 3 -16 11 -12 21 4 12 1 11 -10 -3 -19 -23
-22 -39 -5 -29 7 4 8 3 4 -4 -9 -14 -42 -16 -51 -3 -3 6 -18 6 -36 1 -16 -5
-37 -6 -46 -3 -9 4 -14 2 -10 -3 3 -6 2 -16 -4 -24 -7 -13 -9 -12 -9 2 0 12
-9 16 -35 16 -23 0 -35 -5 -35 -14 0 -8 -5 -14 -10 -14 -7 0 -7 7 0 21 13 24
4 41 -10 19 -9 -13 -10 -13 -10 0 0 9 -3 11 -8 5 -8 -12 -43 -12 -61 -1 -18
11 -13 -6 7 -20 15 -12 15 -12 -5 -7 -13 3 -23 12 -23 21 0 11 -3 13 -11 5 -5
-5 -7 -21 -4 -35 5 -20 13 -25 37 -26 17 0 44 -6 60 -13 l29 -12 -38 -17 c-21
-10 -45 -14 -53 -10 -8 4 -24 4 -35 0 -11 -4 -32 -4 -47 1 -18 5 -29 3 -32 -4
-3 -9 -7 -9 -13 -1 -4 7 -19 14 -33 16 -26 5 -22 8 25 23 8 2 15 14 15 26 0
19 4 21 32 15 18 -3 36 -12 40 -19 13 -21 9 15 -7 48 -8 18 -14 23 -14 13 -1
-21 -24 -28 -83 -24 -27 2 -48 1 -48 -3 0 -4 -11 -13 -24 -21 -21 -11 -27 -10
-40 2 -8 9 -13 18 -10 21 8 8 -41 1 -54 -7 -7 -4 -12 -12 -12 -17 0 -6 7 -3
16 5 17 18 34 21 34 7 0 -5 -8 -11 -17 -15 -10 -3 -24 -9 -30 -12 -8 -3 -13 2
-14 13 0 10 -3 13 -5 7 -3 -7 -13 -10 -23 -7 -10 3 -22 0 -25 -6 -4 -7 1 -11
14 -11 12 0 18 -4 15 -10 -10 -16 -45 -12 -45 5 0 19 -19 20 -26 2 -5 -15 -34
-19 -34 -5 0 5 -10 4 -21 -3 -12 -6 -34 -8 -50 -5 -17 3 -29 1 -29 -5 0 -6 5
-7 12 -3 7 5 8 3 4 -5 -5 -7 -10 -10 -13 -8 -2 3 -18 1 -34 -3 -16 -5 -42 -5
-58 0 -20 6 -31 5 -34 -3 -2 -6 -19 -13 -38 -14 -87 -7 -139 -16 -139 -23 0
-4 -15 -7 -32 -7 -45 1 -83 -27 -108 -79 -12 -24 -28 -44 -36 -44 -12 0 -12 4
-2 23 7 12 19 30 27 39 7 10 11 30 9 47 -4 24 -1 31 16 33 11 2 26 13 32 25 6
13 19 32 30 44 17 19 17 22 2 33 -14 10 -14 14 7 38 24 28 44 145 29 170 -11
17 -12 171 -1 185 10 13 0 53 -13 53 -4 0 -5 27 -3 59 5 58 5 60 -26 75 -17 9
-31 19 -31 23 0 3 3 3 7 0 3 -4 12 -2 20 5 11 9 12 7 7 -7 -5 -13 -4 -16 4
-11 7 4 12 20 12 36 0 23 -4 28 -17 24 -17 -5 -17 -5 0 6 12 8 17 24 17 54 0
55 -6 60 -41 35 l-29 -20 -25 25 c-34 35 -32 46 3 13 33 -32 49 -25 26 12 -9
14 -11 20 -3 14 16 -15 43 -17 34 -3 -3 6 1 10 10 10 26 0 28 27 6 70 -12 22
-21 57 -21 78 0 105 -79 421 -130 522 -10 19 -39 50 -64 68 -62 45 -210 113
-257 119 -22 3 -39 9 -39 14 0 5 7 6 15 3 8 -4 15 -2 15 3 0 20 -116 147 -147
162 -22 11 -33 23 -33 38 0 37 21 71 50 82 20 6 30 18 34 40 3 17 9 44 12 60
3 16 0 32 -5 36 -6 3 -11 41 -11 86 0 129 -47 206 -144 234 -69 21 -103 19
-161 -9z m652 -904 c-10 -10 -14 -21 -11 -25 9 -9 -6 -48 -16 -42 -15 9 15 85
33 85 6 0 3 -8 -6 -18z m-68 -119 c18 -35 20 -36 21 -13 0 14 5 32 10 40 8 12
10 10 9 -10 -1 -14 -4 -36 -8 -48 -6 -23 -7 -23 -23 -5 -17 18 -41 73 -33 73
2 0 13 -17 24 -37z m-591 -1 c6 -18 -15 -14 -22 4 -4 10 -1 14 6 12 6 -2 14
-10 16 -16z m-53 -2 c3 -5 1 -10 -4 -10 -6 0 -11 5 -11 10 0 6 2 10 4 10 3 0
8 -4 11 -10z m762 -22 c-3 -8 -6 -5 -6 6 -1 11 2 17 5 13 3 -3 4 -12 1 -19z
m-802 1 c11 -17 -1 -21 -15 -4 -8 9 -8 15 -2 15 6 0 14 -5 17 -11z m555 -31
c22 -24 26 -38 10 -38 -5 0 -16 14 -25 30 -18 36 -13 38 15 8z m53 -20 c-2 -5
1 -8 7 -8 6 0 8 -4 5 -10 -3 -5 -1 -10 6 -10 7 0 9 -3 6 -6 -4 -4 -13 -2 -20
4 -8 7 -16 10 -18 8 -2 -2 -4 8 -5 24 -1 22 2 25 11 17 7 -7 11 -15 8 -19z
m245 -3 c-3 -3 -9 2 -12 12 -6 14 -5 15 5 6 7 -7 10 -15 7 -18z m-28 -10 c0
-8 -2 -15 -4 -15 -2 0 -6 7 -10 15 -3 8 -1 15 4 15 6 0 10 -7 10 -15z m-801
-50 c0 -5 -6 1 -14 15 -8 14 -14 30 -14 35 0 6 6 -1 14 -15 8 -14 14 -29 14
-35z m582 -2 c13 -16 12 -17 -3 -4 -10 7 -18 15 -18 17 0 8 8 3 21 -13z m-481
-233 c209 -491 367 -732 502 -766 l53 -14 -59 4 c-56 3 -60 5 -107 57 -51 56
-222 305 -256 374 -20 39 -40 87 -142 333 -52 125 -91 224 -91 231 0 13 17
-24 100 -219z m735 171 c3 -5 1 -12 -5 -16 -5 -3 -10 1 -10 9 0 18 6 21 15 7z
m-4349 -142 c3 -6 1 -15 -6 -19 -8 -5 -9 -13 -4 -21 7 -12 5 -12 -9 -1 -14 12
-16 11 -12 -10 l4 -23 -20 25 c-11 14 -18 19 -14 13 4 -9 -1 -13 -15 -13 -20
0 -21 1 -4 18 18 17 21 18 50 21 8 0 12 6 9 11 -3 6 -2 10 4 10 5 0 13 -5 17
-11z m48 -38 c3 -5 -1 -11 -9 -15 -15 -6 -29 7 -18 18 9 9 21 8 27 -3z m717
-204 c-10 -9 -11 -8 -5 6 3 10 9 15 12 12 3 -3 0 -11 -7 -18z m39 -38 c0 -5
-4 -9 -10 -9 -5 0 -10 7 -10 16 0 9 -5 12 -12 8 -7 -4 -8 -3 -4 5 6 9 11 9 22
0 8 -6 14 -15 14 -20z m-86 -14 c3 -8 1 -15 -4 -15 -6 0 -10 7 -10 15 0 8 2
15 4 15 2 0 6 -7 10 -15z m52 -33 c1 -26 0 -27 -20 -6 -9 8 -13 20 -10 25 10
16 29 4 30 -19z m-52 0 c3 -5 -1 -9 -9 -9 -8 0 -12 4 -9 9 3 4 7 8 9 8 2 0 6
-4 9 -8z m91 -12 c-3 -5 -11 -10 -16 -10 -6 0 -7 5 -4 10 3 6 11 10 16 10 6 0
7 -4 4 -10z m25 -35 c0 -8 -3 -15 -6 -15 -3 0 -12 7 -20 15 -14 13 -13 15 5
15 12 0 21 -6 21 -15z m-23 -119 c-7 -17 -44 -17 -51 0 -3 7 5 9 20 6 15 -3
24 0 24 9 0 7 3 10 6 6 4 -3 4 -13 1 -21z m-72 4 c-3 -5 -2 -10 4 -10 6 0 7
-7 4 -17 -4 -11 -3 -14 5 -9 7 4 12 2 12 -3 0 -16 -16 -13 -30 4 -7 8 -9 15
-5 15 4 0 2 7 -5 15 -10 12 -9 15 4 15 10 0 14 -4 11 -10z m3752 -65 c0 -8 -4
-15 -9 -15 -5 0 -6 -4 -3 -10 3 -6 -1 -7 -9 -4 -9 3 -16 1 -16 -4 0 -8 -9 -8
-30 -1 -16 6 -30 15 -30 19 0 12 64 19 71 8 3 -5 9 -3 12 6 8 20 14 20 14 1z
m-429 -20 c-3 -3 -9 2 -12 12 -6 14 -5 15 5 6 7 -7 10 -15 7 -18z m41 -90 c0
-5 -6 1 -14 15 -8 14 -14 30 -14 35 0 6 6 -1 14 -15 8 -14 14 -29 14 -35z
m-1929 -5 c0 -5 -4 -10 -10 -10 -5 0 -10 5 -10 10 0 6 5 10 10 10 6 0 10 -4
10 -10z m1953 -40 c3 -11 2 -18 -3 -15 -4 3 -10 14 -13 25 -3 11 -2 18 3 15 4
-3 10 -14 13 -25z m-2287 3 c-7 -7 -77 -5 -85 3 -2 2 17 4 44 4 27 0 45 -3 41
-7z m62 -10 c-10 -2 -26 -2 -35 0 -10 3 -2 5 17 5 19 0 27 -2 18 -5z m-201
-19 c-3 -3 -12 -4 -19 -1 -8 3 -5 6 6 6 11 1 17 -2 13 -5z m-137 -24 c0 -5 -5
-10 -11 -10 -5 0 -7 5 -4 10 3 6 8 10 11 10 2 0 4 -4 4 -10z m115 -10 c-3 -5
-12 -7 -20 -3 -21 7 -19 13 6 13 11 0 18 -4 14 -10z m167 -2 c-9 -9 -15 -9
-24 0 -9 9 -7 12 12 12 19 0 21 -3 12 -12z m2306 -13 c-3 -3 -9 2 -12 12 -6
14 -5 15 5 6 7 -7 10 -15 7 -18z m131 -118 c14 -36 15 -34 -9 -40 -19 -5 -21
-13 -20 -74 1 -37 -5 -88 -12 -112 l-15 -44 -10 64 c-6 35 -14 71 -18 80 -4
11 0 18 13 21 21 6 31 59 33 173 l1 60 13 -50 c7 -27 18 -63 24 -78z m-2329
93 c0 -5 -6 -10 -14 -10 -8 0 -16 -4 -18 -9 -1 -5 -19 -6 -38 -3 l-35 6 40 12
c50 16 65 17 65 4z m1167 -67 c-3 -10 -5 -4 -5 12 0 17 2 24 5 18 2 -7 2 -21
0 -30z m-874 -30 c-7 -2 -13 -11 -13 -18 0 -7 6 -15 13 -18 6 -2 -16 -5 -50
-6 -49 -1 -63 2 -63 13 0 17 37 28 68 19 13 -3 22 -1 22 6 0 6 8 11 18 10 10
0 12 -3 5 -6z m-139 -18 c-9 -22 -41 -28 -65 -11 -21 14 -21 15 12 19 19 2 39
5 46 5 7 1 10 -4 7 -13z m251 -7 c-3 -7 -24 -14 -48 -15 -39 -2 -41 -1 -23 12
25 19 77 20 71 3z m3584 -65 c0 -25 -1 -25 -8 -8 -5 11 -7 23 -4 28 8 14 13 7
12 -20z m-2805 -4 c8 1 9 -5 1 -40 -9 -40 -25 -20 -25 31 0 23 3 30 9 22 4 -8
11 -13 15 -13z m2836 -23 c0 -3 -4 -8 -10 -11 -5 -3 -10 -1 -10 4 0 6 5 11 10
11 6 0 10 -2 10 -4z m47 -18 c-3 -8 -6 -5 -6 6 -1 11 2 17 5 13 3 -3 4 -12 1
-19z m66 -4 c1 -4 -8 -9 -20 -10 -13 -2 -23 1 -23 7 0 5 4 8 9 4 5 -3 13 0 16
6 7 10 15 7 18 -7z m37 -4 c0 -5 -4 -10 -10 -10 -5 0 -10 5 -10 10 0 6 5 10
10 10 6 0 10 -4 10 -10z m50 6 c0 -3 -4 -8 -10 -11 -5 -3 -10 -1 -10 4 0 6 5
11 10 11 6 0 10 -2 10 -4z m-926 -14 c2 -4 -4 -9 -15 -9 -11 -1 -17 2 -14 8 7
11 22 12 29 1z m939 -18 c-3 -9 0 -20 8 -25 11 -7 11 -9 1 -9 -7 0 -10 -5 -6
-12 4 -7 3 -8 -5 -4 -6 4 -9 12 -6 17 4 5 -1 9 -9 9 -19 0 -21 11 -4 28 17 17
28 15 21 -4z m-1038 -4 c-3 -5 -12 -10 -18 -10 -7 0 -6 4 3 10 19 12 23 12 15
0z m-220 -20 c-3 -5 -11 -10 -16 -10 -6 0 -7 5 -4 10 3 6 11 10 16 10 6 0 7
-4 4 -10z m-2075 -30 c0 -5 -2 -10 -4 -10 -3 0 -8 5 -11 10 -3 6 -1 10 4 10 6
0 11 -4 11 -10z m3275 -10 c-3 -5 -14 -10 -23 -9 -14 0 -13 2 3 9 27 11 27 11
20 0z m190 -50 c3 -5 2 -10 -4 -10 -5 0 -13 5 -16 10 -3 6 -2 10 4 10 5 0 13
-4 16 -10z m-2004 -63 c-15 -39 -32 -34 -26 8 6 49 16 64 27 39 6 -12 5 -30
-1 -47z m2044 43 c3 -5 1 -10 -4 -10 -6 0 -11 5 -11 10 0 6 2 10 4 10 3 0 8
-4 11 -10z m-3263 -40 c2 -22 0 -40 -4 -40 -5 0 -8 18 -8 40 0 22 2 40 4 40 2
0 6 -18 8 -40z m3638 -274 c0 -2 -7 -7 -16 -10 -8 -3 -12 -2 -9 4 6 10 25 14
25 6z m685 -6 c3 -5 1 -10 -4 -10 -6 0 -11 5 -11 10 0 6 2 10 4 10 3 0 8 -4
11 -10z m249 -362 c-3 -4 -9 -8 -15 -8 -5 0 -9 4 -9 8 0 5 7 9 15 9 8 0 12 -4
9 -9z m941 -168 c4 -6 -10 -10 -37 -9 -40 1 -41 2 -13 9 43 11 43 11 50 0z
m-275 -4 c0 -3 -4 -8 -10 -11 -5 -3 -10 -1 -10 4 0 6 5 11 10 11 6 0 10 -2 10
-4z m177 -2 c-3 -3 -12 -4 -19 -1 -8 3 -5 6 6 6 11 1 17 -2 13 -5z m-7521
-191 c3 -20 1 -33 -5 -33 -16 0 -33 40 -25 58 4 9 6 28 6 42 -1 23 0 22 8 -5
6 -16 13 -45 16 -62z m11 -59 c9 -23 -13 -40 -32 -24 -12 10 -13 16 -4 26 15
18 28 18 36 -2z m-2216 -291 c10 -48 19 -111 19 -140 l0 -51 -42 4 c-29 3 -49
11 -61 27 -10 12 -16 16 -12 10 11 -21 -4 -32 -33 -24 -17 5 -27 14 -27 26 0
15 8 19 43 20 23 1 42 -2 42 -7 0 -5 5 -6 10 -3 18 11 12 38 -7 31 -9 -4 -20
-1 -25 6 -13 21 -9 25 17 20 24 -4 31 8 26 41 0 4 6 7 14 7 13 0 14 4 5 20 -6
11 -7 20 -3 20 4 0 1 5 -7 10 -10 6 -11 10 -2 10 6 0 12 7 12 15 0 8 -5 15
-10 15 -6 0 -5 8 2 20 7 10 14 17 16 15 3 -2 13 -44 23 -92z m31 -336 c3 -49
0 -57 -15 -57 -9 0 -16 5 -15 11 2 6 -14 20 -35 31 -35 19 -36 21 -20 34 10 7
13 14 7 14 -7 0 -11 11 -10 25 0 14 6 23 11 21 6 -2 9 -8 8 -13 -1 -5 6 -14
16 -20 15 -10 18 -9 17 5 0 9 5 16 12 15 6 -2 13 7 13 20 2 20 2 19 5 -3 2
-14 5 -51 6 -83z m58 -278 c0 -6 -4 -7 -10 -4 -5 3 -10 11 -10 16 0 6 5 7 10
4 6 -3 10 -11 10 -16z m4541 -46 c13 -16 12 -17 -3 -4 -17 13 -22 21 -14 21 2
0 10 -8 17 -17z m-1719 -118 c-2 -25 -8 -45 -13 -45 -5 0 -9 6 -10 13 0 6 -2
20 -4 30 -2 9 2 17 8 17 9 0 9 2 1 8 -14 9 -27 60 -18 73 12 21 39 -51 36 -96z
m1782 66 c-3 -3 -15 6 -27 18 l-22 24 27 -19 c14 -10 24 -21 22 -23z m-200
-27 c3 -8 2 -12 -4 -9 -6 3 -10 10 -10 16 0 14 7 11 14 -7z m277 -21 c13 -16
12 -17 -3 -4 -17 13 -22 21 -14 21 2 0 10 -8 17 -17z m1086 -25 c-3 -8 -6 -5
-6 6 -1 11 2 17 5 13 3 -3 4 -12 1 -19z m83 -24 c33 -15 59 -28 57 -31 -5 -4
-108 37 -121 49 -17 14 0 9 64 -18z m-1660 -9 c-7 -9 -15 -13 -19 -10 -3 3 1
10 9 15 21 14 24 12 10 -5z m-235 -5 c-3 -5 -12 -10 -18 -10 -7 0 -6 4 3 10
19 12 23 12 15 0z m-35 -14 c0 -9 -8 -12 -25 -8 -28 5 -24 22 6 22 10 0 19 -6
19 -14z m-80 -26 c0 -5 -5 -10 -11 -10 -5 0 -7 5 -4 10 3 6 8 10 11 10 2 0 4
-4 4 -10z m2127 -15 c0 -8 -4 -15 -9 -15 -4 0 -8 7 -8 15 0 8 4 15 8 15 5 0 9
-7 9 -15z m-27 -15 c0 -5 -2 -10 -4 -10 -3 0 -8 5 -11 10 -3 6 -1 10 4 10 6 0
11 -4 11 -10z m91 -8 c15 -13 19 -21 11 -26 -7 -4 -12 -1 -12 7 0 21 -23 27
-38 11 -11 -12 -9 -14 10 -15 21 -1 21 -2 3 -6 -11 -3 -23 -10 -27 -17 -5 -6
-8 -2 -8 12 0 22 18 51 31 52 4 0 17 -8 30 -18z m-1676 -12 c3 -5 1 -10 -4
-10 -6 0 -11 5 -11 10 0 6 2 10 4 10 3 0 8 -4 11 -10z m1060 -10 c3 -6 -1 -7
-9 -4 -18 7 -21 14 -7 14 6 0 13 -4 16 -10z m248 -7 c-5 -12 -3 -14 7 -8 8 5
11 4 6 -3 -4 -7 -15 -8 -30 -2 -13 5 -27 6 -30 3 -3 -4 -6 -1 -6 5 0 6 12 13
28 15 15 2 28 5 29 6 1 0 -1 -6 -4 -16z m403 -25 c-10 -5 -25 -6 -34 -2 -14 6
-13 8 8 14 31 9 48 0 26 -12z m-971 2 c4 -6 3 -10 -2 -9 -4 1 -10 0 -13 -1
-15 -7 -69 -6 -64 2 3 4 9 6 14 3 4 -3 19 -1 32 4 12 6 24 10 25 10 1 1 5 -4
8 -9z m293 3 c-14 -3 -15 -9 -8 -29 5 -13 7 -24 4 -24 -7 0 -22 44 -17 53 2 4
12 6 21 6 16 -1 16 -2 0 -6z m119 1 c-3 -3 -12 -4 -19 -1 -8 3 -5 6 6 6 11 1
17 -2 13 -5z m-164 -34 c10 -12 9 -12 -4 -2 -9 6 -18 9 -21 6 -3 -3 -9 -1 -12
4 -9 15 22 8 37 -8z m-355 -4 c-10 -7 -18 -19 -18 -26 0 -9 6 -7 20 5 11 10
20 15 20 11 0 -3 10 0 23 8 16 11 26 12 37 5 13 -10 13 -10 0 -6 -9 3 -24 -1
-34 -9 -11 -7 -22 -11 -26 -9 -4 3 -13 -2 -20 -10 -7 -8 -20 -15 -29 -15 -13
-1 -13 -3 3 -15 14 -11 16 -15 5 -15 -12 0 -12 -2 1 -10 13 -9 13 -10 0 -10
-9 0 -21 5 -28 12 -9 9 -12 8 -13 -7 0 -15 -2 -16 -6 -5 -3 8 -11 18 -17 22
-6 5 -1 8 12 8 13 0 22 6 21 13 -2 20 13 57 21 52 5 -3 11 -1 15 5 3 5 12 10
18 10 7 0 4 -7 -5 -14z m442 -1 c0 -9 -6 -12 -15 -9 -8 4 -12 10 -9 15 8 14
24 10 24 -6z m-297 -15 c-3 -11 -9 -17 -15 -14 -5 3 -4 12 3 20 16 19 18 18
12 -6z m114 14 c-3 -3 -12 -4 -19 -1 -8 3 -5 6 6 6 11 1 17 -2 13 -5z m69 -19
c12 -11 21 -21 20 -22 -4 -5 -65 27 -71 37 -10 16 28 5 51 -15z m-236 -29 c0
-12 -3 -16 -8 -10 -4 6 -16 15 -26 21 -17 9 -16 11 7 11 21 0 27 -5 27 -22z
m97 18 c-3 -3 -12 -4 -19 -1 -8 3 -5 6 6 6 11 1 17 -2 13 -5z m683 -19 c0 -26
-14 -33 -26 -14 -4 8 -9 7 -15 -2 -6 -9 -9 -10 -9 -2 0 14 27 43 41 43 5 0 9
-11 9 -25z m-5680 6 c0 -12 -28 -22 -34 -12 -3 5 -3 11 1 15 9 9 33 7 33 -3z
m5810 0 c0 -6 -4 -12 -8 -15 -5 -3 -9 1 -9 9 0 8 4 15 9 15 4 0 8 -4 8 -9z
m105 -20 c-6 -5 -25 10 -25 20 0 5 6 4 14 -3 8 -7 12 -15 11 -17z m-1783 12
c-6 -2 -9 -10 -6 -15 4 -7 2 -8 -4 -4 -18 11 -14 26 6 25 10 0 12 -3 4 -6z
m943 -3 c-3 -5 2 -10 11 -10 10 0 15 -3 11 -6 -10 -10 -39 5 -32 16 3 5 8 10
11 10 3 0 2 -4 -1 -10z m653 -24 c3 -15 1 -16 -17 -4 -26 16 -27 27 -3 24 9
-2 19 -11 20 -20z m-573 -7 c0 -8 5 -17 10 -21 6 -5 5 -11 -4 -17 -10 -7 -19
-4 -28 7 -10 15 -12 13 -8 -15 2 -18 0 -33 -3 -33 -8 0 -28 29 -31 45 -2 6 -8
16 -14 24 -10 12 -7 13 20 8 18 -4 32 -3 32 1 -3 17 2 23 14 20 6 -3 12 -11
12 -19z m80 -8 c-3 -6 -11 -8 -17 -5 -6 4 -5 9 3 15 16 10 23 4 14 -10z
m-1379 -9 c1 -7 0 -8 -3 -2 -2 5 -9 8 -13 5 -5 -3 -12 0 -15 6 -5 7 -1 10 10
7 10 -1 20 -9 21 -16z m304 3 c0 -2 -7 -8 -15 -15 -12 -10 -15 -10 -15 2 0 8
7 15 15 15 8 0 15 -1 15 -2z m820 -5 c10 -6 11 -10 3 -10 -7 0 -13 -5 -13 -11
0 -5 4 -8 9 -4 5 3 12 1 16 -5 3 -5 -1 -10 -10 -10 -9 0 -13 -5 -9 -11 4 -7 1
-10 -7 -7 -8 3 -14 14 -15 25 -1 11 -4 25 -8 32 -9 13 13 14 34 1z m-1080 -18
c0 -14 -23 -32 -42 -32 -11 0 -15 5 -12 15 4 10 13 13 26 9 14 -4 18 -2 14 5
-4 6 -2 11 3 11 6 0 11 -4 11 -8z m1038 -5 c13 4 14 3 3 -5 -7 -5 -10 -15 -7
-21 4 -6 2 -11 -3 -11 -6 0 -11 -5 -11 -11 0 -5 6 -7 13 -3 9 6 9 5 0 -8 -7
-8 -10 -18 -6 -21 11 -12 23 -8 23 8 0 8 9 19 19 25 26 13 34 13 25 -2 -4 -7
-3 -8 4 -4 7 4 12 18 12 32 0 13 5 24 12 24 6 0 8 -3 5 -7 -4 -3 -1 -13 5 -21
10 -11 9 -16 -4 -23 -10 -5 -15 -18 -13 -29 2 -11 0 -18 -6 -15 -5 4 -9 1 -9
-6 0 -7 -3 -9 -6 -6 -4 4 -2 13 4 20 9 10 8 14 -3 14 -8 0 -13 -3 -10 -5 3 -3
0 -11 -5 -18 -6 -6 -9 -17 -8 -24 4 -17 -29 -21 -36 -5 -3 10 1 12 12 9 14 -5
13 -3 -2 10 -17 14 -22 14 -36 1 -17 -15 -64 -9 -54 7 4 6 1 14 -6 18 -9 5 -9
9 -1 14 6 4 11 2 11 -3 0 -6 5 -11 11 -11 5 0 7 5 3 12 -5 8 -2 9 11 4 14 -5
16 -4 7 7 -7 8 -9 17 -5 21 4 4 1 12 -7 17 -11 8 -10 9 8 4 17 -5 22 -2 23 12
0 10 3 13 5 6 3 -7 13 -9 22 -6z m-73 -27 c3 -5 1 -10 -4 -10 -6 0 -11 5 -11
10 0 6 2 10 4 10 3 0 8 -4 11 -10z m199 -27 c-7 -26 -6 -27 12 -13 12 9 15 9
7 1 -6 -7 -9 -21 -5 -30 5 -14 3 -13 -12 2 -10 9 -21 15 -26 12 -5 -3 -7 3 -6
12 2 9 8 19 14 21 7 2 10 8 6 13 -3 5 0 9 6 9 6 0 8 -10 4 -27z m100 11 c3 -8
2 -12 -4 -9 -6 3 -10 10 -10 16 0 14 7 11 14 -7z m-1375 -21 c4 -3 -28 2 -47
6 -2 1 0 6 3 11 5 8 12 7 23 -2 10 -7 19 -14 21 -15z m140 2 c23 -5 30 -10 20
-15 -10 -7 -10 -11 1 -24 11 -14 10 -16 -4 -10 -9 3 -16 10 -16 16 0 5 -4 6
-10 3 -5 -3 -7 0 -4 9 4 11 0 14 -13 12 -13 -3 -19 2 -21 17 0 12 2 17 6 11 4
-6 22 -15 41 -19z m2496 3 c14 -6 25 -15 25 -19 0 -14 -15 -18 -30 -8 -13 7
-13 9 0 9 9 1 5 6 -10 15 -30 17 -21 20 15 3z m-2310 -9 c11 -16 1 -19 -13 -3
-7 8 -8 14 -3 14 5 0 13 -5 16 -11z m1068 -9 c-5 -19 -23 -29 -23 -12 0 7 20
32 26 32 1 0 0 -9 -3 -20z m-1438 0 c3 -5 1 -10 -4 -10 -6 0 -11 5 -11 10 0 6
2 10 4 10 3 0 8 -4 11 -10z m-166 -7 c-3 -19 2 -23 19 -14 14 8 19 6 19 -5 0
-7 -9 -14 -19 -14 -22 0 -51 24 -41 34 9 8 23 8 22 -1z m233 -4 c2 -2 1 -3 -1
-2 -2 1 -12 -2 -22 -8 -14 -7 -17 -6 -13 5 5 13 29 16 36 5z m-331 -24 c5 4
16 2 25 -3 12 -6 8 -9 -15 -9 -22 0 -31 5 -30 16 0 11 2 12 6 3 2 -6 9 -10 14
-7z m403 0 c3 -8 14 -15 25 -15 24 0 35 -39 16 -60 -18 -20 -19 -31 -5 -40 18
-11 22 -66 6 -80 -10 -7 -16 -8 -21 0 -3 5 -1 10 5 10 11 0 8 29 -6 65 -10 25
-44 56 -55 50 -4 -3 -10 -1 -14 5 -4 6 -11 7 -17 4 -7 -4 -8 -2 -4 4 4 7 2 12
-3 12 -6 0 -11 -8 -11 -18 0 -25 -11 -34 -26 -22 -18 16 -5 50 24 61 14 5 27
7 30 4 3 -3 0 -5 -8 -5 -10 0 -10 -3 0 -15 12 -14 15 -14 31 1 11 10 19 12 19
6 0 -7 -6 -12 -12 -12 -7 0 -5 -5 5 -11 18 -11 47 3 47 21 0 11 -57 30 -65 22
-3 -4 -3 1 1 11 8 21 30 22 38 2z m953 9 c-3 -3 -12 -4 -19 -1 -8 3 -5 6 6 6
11 1 17 -2 13 -5z m1627 -9 c-4 -8 -10 -15 -15 -15 -4 0 -6 7 -3 15 4 8 10 15
15 15 4 0 6 -7 3 -15z m-2444 -10 c0 -8 -5 -15 -11 -15 -5 0 -7 -6 -3 -12 6
-10 5 -10 -8 -1 -8 7 -17 12 -19 10 -2 -1 3 6 11 15 19 21 30 22 30 3z m-444
-14 c-4 -5 -1 -11 6 -13 8 -3 6 -7 -4 -11 -10 -3 -22 1 -30 11 -8 10 -8 13 -1
9 6 -4 14 -3 18 3 3 5 8 10 11 10 3 0 3 -4 0 -9z m124 -6 c9 -10 9 -15 1 -15
-6 0 -11 5 -11 11 0 5 -4 7 -10 4 -5 -3 -10 -1 -10 4 0 16 16 13 30 -4z m975
-4 c3 -5 1 -12 -4 -15 -5 -3 -11 1 -15 9 -6 16 9 21 19 6z m75 -1 c8 -5 11
-12 7 -17 -5 -4 -12 -2 -16 5 -4 8 -15 10 -26 6 -13 -5 -16 -4 -11 4 9 14 26
15 46 2z m84 -6 c-1 -5 -11 -14 -23 -20 -11 -6 -18 -15 -13 -20 4 -4 -1 -2
-11 5 -12 10 -14 17 -7 26 5 6 7 15 4 18 -3 3 7 4 22 3 16 -2 28 -7 28 -12z
m1670 -9 c3 -8 1 -15 -3 -15 -5 0 -11 7 -15 15 -3 8 -1 15 3 15 5 0 11 -7 15
-15z m-1386 -12 c-2 -9 -10 -19 -18 -21 -13 -4 -13 -3 -2 10 10 13 10 17 0 21
-8 3 -6 6 5 6 12 1 17 -5 15 -16z m1420 -8 c-3 -3 -9 2 -12 12 -6 14 -5 15 5
6 7 -7 10 -15 7 -18z m-2803 5 c3 -5 2 -10 -4 -10 -5 0 -13 5 -16 10 -3 6 -2
10 4 10 5 0 13 -4 16 -10z m246 0 c11 -6 19 -21 19 -35 0 -39 -18 -39 -35 1
-21 50 -20 53 16 34z m1061 -4 c9 5 10 4 3 -4 -13 -13 -40 -19 -43 -9 -6 22
-1 29 13 17 8 -6 20 -8 27 -4z m-1166 -53 c-3 -3 -1 -12 6 -20 6 -7 8 -16 5
-20 -3 -3 0 -20 7 -38 15 -34 12 -37 -29 -20 -24 10 -35 24 -35 45 1 12 3 11
11 -2 11 -19 39 -25 39 -8 0 5 -8 7 -17 4 -17 -5 -17 -5 0 6 13 9 15 15 7 31
-6 10 -7 19 -3 19 4 0 0 7 -11 15 -10 7 -15 19 -11 25 5 8 12 4 22 -10 8 -12
12 -24 9 -27z m64 37 c0 -5 -5 -10 -11 -10 -5 0 -7 5 -4 10 3 6 8 10 11 10 2
0 4 -4 4 -10z m655 0 c3 -6 -1 -7 -9 -4 -18 7 -21 14 -7 14 6 0 13 -4 16 -10z
m309 -21 c13 -26 13 -29 1 -19 -8 7 -15 19 -15 27 0 10 -6 13 -16 9 -8 -3 -12
-2 -9 4 11 18 23 11 39 -21z m1461 13 c-3 -3 -11 0 -18 7 -9 10 -8 11 6 5 10
-3 15 -9 12 -12z m-1400 -3 c11 -17 -1 -21 -15 -4 -8 9 -8 15 -2 15 6 0 14 -5
17 -11z m-1530 -9 c-3 -5 -11 -10 -16 -10 -6 0 -7 5 -4 10 3 6 11 10 16 10 6
0 7 -4 4 -10z m1695 -7 c0 -21 -19 -24 -29 -5 -8 14 -6 18 10 18 10 0 19 -6
19 -13z m1420 7 c0 -5 -2 -10 -4 -10 -3 0 -8 5 -11 10 -3 6 -1 10 4 10 6 0 11
-4 11 -10z m-2840 -10 c0 -5 -7 -7 -15 -4 -8 4 -15 8 -15 10 0 2 7 4 15 4 8 0
15 -4 15 -10z m24 -2 c-5 -8 -2 -9 9 -5 12 4 17 1 18 -11 1 -11 4 -8 9 8 7 22
9 21 14 -8 0 -5 9 -16 19 -26 19 -19 23 -31 7 -21 -5 3 -10 2 -10 -2 0 -13 44
-48 56 -45 6 1 17 -12 25 -30 7 -18 19 -42 27 -53 13 -19 14 -19 7 4 -5 16 -4
21 4 17 19 -12 12 -33 -16 -52 -24 -15 -26 -15 -14 -1 12 15 11 17 -3 17 -9 0
-16 5 -16 11 0 5 5 7 10 4 6 -3 10 -1 10 4 0 10 -14 15 -33 12 -5 -1 -6 3 -2
9 3 5 1 10 -4 10 -6 0 -10 5 -8 12 1 7 -2 12 -8 13 -5 0 -16 4 -24 9 -11 7
-11 10 0 17 10 6 6 9 -13 9 -15 0 -30 5 -34 12 -5 8 -2 9 9 5 18 -7 24 8 7 18
-6 4 -8 11 -4 16 3 5 2 8 -3 7 -4 -1 -18 3 -30 10 -23 13 -32 42 -12 42 5 0 7
-5 3 -12z m301 -8 c3 -5 1 -10 -4 -10 -6 0 -11 5 -11 10 0 6 2 10 4 10 3 0 8
-4 11 -10z m520 -10 c3 -5 -1 -10 -10 -10 -9 0 -13 5 -10 10 3 6 8 10 10 10 2
0 7 -4 10 -10z m150 -4 c10 1 25 -2 32 -7 7 -6 17 -7 24 -3 9 5 10 0 5 -20 -4
-18 -3 -25 4 -21 5 3 10 1 10 -5 0 -7 -7 -9 -16 -6 -12 5 -15 2 -10 -10 5 -14
4 -15 -8 -5 -10 9 -15 8 -19 -2 -4 -11 -14 -12 -51 -3 -25 6 -45 15 -43 21 5
13 67 19 67 7 0 -6 8 -9 18 -7 9 2 21 4 25 4 5 1 1 8 -7 17 -9 8 -14 20 -11
25 9 14 -7 10 -29 -6 -24 -18 -45 -20 -28 -3 9 9 7 15 -6 25 -16 13 -15 13 3
5 11 -5 29 -8 40 -6z m-1060 -16 c3 -5 1 -10 -4 -10 -6 0 -11 5 -11 10 0 6 2
10 4 10 3 0 8 -4 11 -10z m1396 -23 c-8 -8 -11 -8 -11 2 0 7 -5 9 -12 5 -7 -4
-8 -3 -4 5 4 6 12 9 17 6 5 -4 9 0 10 7 0 10 2 10 6 0 3 -8 0 -19 -6 -25z
m1519 -2 c0 -5 -5 -3 -10 5 -5 8 -10 20 -10 25 0 6 5 3 10 -5 5 -8 10 -19 10
-25z m-2840 9 c0 -8 -5 -12 -10 -9 -6 4 -8 11 -5 16 9 14 15 11 15 -7z m2637
0 c-3 -3 -12 -4 -19 -1 -8 3 -5 6 6 6 11 1 17 -2 13 -5z m-2732 -14 c-3 -5
-12 -10 -18 -10 -7 0 -6 4 3 10 19 12 23 12 15 0z m1529 -20 c-6 -6 -10 -2
-11 12 -2 16 1 18 10 9 7 -7 8 -14 1 -21z m-1404 10 c0 -5 -2 -10 -4 -10 -3 0
-8 5 -11 10 -3 6 -1 10 4 10 6 0 11 -4 11 -10z m206 -26 c1 -14 0 -23 -3 -20
-3 3 -15 1 -26 -5 -10 -6 -17 -7 -14 -1 4 5 11 22 17 37 12 32 21 28 26 -11z
m-471 -14 c3 -5 1 -10 -4 -10 -6 0 -11 5 -11 10 0 6 2 10 4 10 3 0 8 -4 11
-10z m230 0 c3 -6 -1 -7 -9 -4 -18 7 -21 14 -7 14 6 0 13 -4 16 -10z m1095 -7
c0 -7 -7 -13 -17 -13 -19 0 -9 -13 12 -16 8 -1 15 5 15 14 0 10 6 4 14 -13 41
-93 45 -106 35 -99 -6 3 -15 0 -20 -7 -6 -9 -7 -2 -4 21 4 27 3 32 -6 20 -9
-13 -10 -12 -5 3 3 10 -1 25 -9 33 -8 9 -15 13 -15 9 0 -3 -9 -1 -19 5 -14 7
-22 7 -26 0 -4 -6 -3 -9 2 -8 19 5 52 -23 48 -42 -2 -12 2 -20 9 -20 8 0 13
-8 12 -17 0 -9 9 -22 21 -28 15 -8 19 -15 13 -25 -4 -7 -4 -23 0 -36 7 -18 6
-21 -11 -17 -11 3 -19 0 -19 -6 0 -7 -5 -9 -12 -5 -7 4 -8 3 -4 -5 4 -6 12 -9
17 -5 11 6 38 -52 34 -75 -1 -9 -12 -18 -25 -19 -18 -3 -21 0 -17 13 4 9 3 14
-2 11 -5 -3 -11 3 -14 14 -3 11 0 23 5 27 7 4 8 1 3 -7 -6 -9 -4 -11 5 -5 9 5
6 13 -13 29 -13 11 -27 29 -30 38 -4 11 -12 15 -22 12 -8 -3 -12 -10 -9 -15 3
-5 -1 -9 -9 -9 -8 0 -18 7 -21 16 -3 8 -10 13 -15 10 -5 -3 -14 1 -21 9 -10
12 -8 13 10 10 19 -4 21 -1 16 19 -4 18 -2 23 12 22 12 -1 16 5 14 19 -5 27
-32 56 -45 48 -6 -3 -7 -1 -3 5 7 11 -6 17 -29 12 -5 -1 -4 4 3 11 9 10 15 10
24 1 7 -7 21 -12 33 -12 17 0 18 -2 5 -11 -13 -9 -13 -10 0 -6 32 8 22 34 -17
42 -46 8 -55 13 -48 26 4 5 15 3 28 -6 32 -22 44 -18 42 13 -1 27 1 28 37 28
24 0 38 -5 38 -13z m1603 -29 c-4 -10 -9 -12 -15 -6 -12 12 -1 35 12 27 5 -3
6 -13 3 -21z m-2875 3 c8 -10 5 -13 -15 -15 -22 -2 -24 0 -13 13 15 18 15 18
28 2z m156 -2 c3 -8 1 -15 -4 -15 -6 0 -10 7 -10 15 0 8 2 15 4 15 2 0 6 -7
10 -15z m275 8 c0 -5 -4 -17 -9 -28 -8 -17 -8 -16 -7 8 1 15 5 27 9 27 4 0 8
-3 7 -7z m-209 -17 c0 -9 -7 -12 -21 -9 -16 4 -17 8 -7 14 19 13 28 11 28 -5z
m30 4 c0 -5 6 -9 13 -7 6 1 11 -3 10 -10 -1 -6 4 -14 13 -17 10 -4 13 -2 8 7
-5 7 -1 7 10 -2 18 -15 13 -25 -21 -35 -16 -5 -25 -1 -35 16 -15 27 -19 58 -7
58 5 0 9 -4 9 -10z m2668 -13 c2 -11 -2 -14 -17 -10 -22 5 -26 14 -14 27 10
10 28 1 31 -17z m87 13 c3 -5 1 -10 -4 -10 -6 0 -11 5 -11 10 0 6 2 10 4 10 3
0 8 -4 11 -10z m-2882 -25 c-5 -21 -7 -22 -20 -10 -16 16 -10 35 11 35 9 0 12
-9 9 -25z m2927 10 c0 -8 -4 -15 -8 -15 -5 0 -9 7 -9 15 0 8 4 15 9 15 4 0 8
-7 8 -15z m67 -17 c-3 -7 -5 -2 -5 12 0 14 2 19 5 13 2 -7 2 -19 0 -25z m-257
-4 c0 -17 -16 -19 -26 -2 -5 7 -3 8 6 3 10 -6 12 -4 7 9 -4 10 -3 15 3 11 6
-3 10 -13 10 -21z m-2700 6 c13 -8 13 -10 -2 -10 -9 0 -20 5 -23 10 -8 13 5
13 25 0z m60 -6 c0 -2 -7 -4 -15 -4 -8 0 -15 4 -15 10 0 5 7 7 15 4 8 -4 15
-8 15 -10z m2940 -19 c0 -8 -7 -15 -15 -15 -26 0 -18 20 13 29 1 1 2 -6 2 -14z
m-271 -32 c0 -16 -3 -22 -6 -13 -3 8 -10 21 -16 28 -7 8 -5 12 7 12 11 0 16
-8 15 -27z m-2597 9 c3 7 7 5 11 -4 4 -13 1 -16 -19 -12 -22 4 -24 2 -14 -16
6 -11 8 -20 6 -20 -3 0 -12 13 -21 30 -15 30 -15 30 9 20 17 -6 26 -5 28 2z
m42 -8 c3 -8 2 -12 -4 -9 -6 3 -10 10 -10 16 0 14 7 11 14 -7z m91 -7 c-7 -16
-29 -17 -42 -2 -4 4 -3 5 4 1 6 -3 18 0 25 8 16 17 21 14 13 -7z m2748 6 c-4
-11 -3 -14 5 -9 8 5 10 2 6 -9 -5 -11 -10 -13 -17 -6 -9 9 -4 41 7 41 3 0 2
-7 -1 -17z m-3021 -11 c-6 -2 -9 -9 -5 -15 5 -8 2 -8 -9 0 -8 7 -17 11 -20 8
-2 -3 -5 1 -5 8 0 9 9 12 26 9 14 -3 20 -7 13 -10z m2967 -33 c-19 -11 -24 -3
-8 14 8 9 16 11 18 5 2 -6 -3 -14 -10 -19z m94 -21 c-4 -13 -8 -45 -7 -71 1
-27 -2 -43 -6 -36 -4 6 -12 9 -18 5 -5 -3 -16 2 -23 11 -9 10 -9 14 -2 10 7
-5 16 0 22 11 8 14 5 22 -10 32 -24 18 -26 42 -2 33 10 -4 14 -2 10 4 -7 11 7
21 31 22 10 1 11 -5 5 -21z m-4853 -7 c0 -5 -7 -12 -16 -15 -14 -5 -15 -4 -4
9 14 17 20 19 20 6z m1688 -16 c-3 -3 -9 2 -12 12 -6 14 -5 15 5 6 7 -7 10
-15 7 -18z m3062 10 c0 -8 -4 -15 -10 -15 -5 0 -7 7 -4 15 4 8 8 15 10 15 2 0
4 -7 4 -15z m-2687 -10 c-3 -9 -8 -14 -10 -11 -3 3 -2 9 2 15 9 16 15 13 8 -4z
m-2198 -15 c3 -6 -1 -7 -9 -4 -18 7 -21 14 -7 14 6 0 13 -4 16 -10z m5013 -1
c-2 -6 -8 -10 -13 -10 -5 0 -11 4 -13 10 -2 6 4 11 13 11 9 0 15 -5 13 -11z
m-5521 -25 c-9 -9 -28 6 -21 18 4 6 10 6 17 -1 6 -6 8 -13 4 -17z m5380 12 c0
-8 -6 -12 -15 -9 -11 5 -11 7 0 14 7 5 13 9 14 9 0 0 1 -6 1 -14z m63 -1 c0
-9 -6 -12 -16 -8 -13 5 -13 7 -2 14 17 11 18 11 18 -6z m-2690 -16 c0 -6 -4
-7 -10 -4 -5 3 -10 11 -10 16 0 6 5 7 10 4 6 -3 10 -11 10 -16z m898 -4 c-3
-3 -9 2 -12 12 -6 14 -5 15 5 6 7 -7 10 -15 7 -18z m-1053 -15 c3 -6 -1 -7 -9
-4 -18 7 -21 14 -7 14 6 0 13 -4 16 -10z m1040 -1 c11 -16 1 -19 -13 -3 -7 8
-8 14 -3 14 5 0 13 -5 16 -11z m1488 -19 c-7 -27 -13 -25 -11 4 1 14 5 23 9
20 4 -2 5 -13 2 -24z m-2388 -24 c2 -21 0 -34 -6 -30 -5 3 -7 10 -4 15 4 5 1
9 -5 9 -6 0 -9 4 -6 9 4 5 0 12 -6 14 -10 4 -9 8 2 16 19 13 21 10 25 -33z
m790 13 c-4 -5 1 -19 11 -30 15 -16 15 -19 2 -19 -9 0 -18 9 -21 21 -4 14 -10
18 -19 13 -10 -6 -10 -4 1 9 15 18 36 24 26 6z m1566 -6 c13 -16 12 -17 -3 -4
-17 13 -22 21 -14 21 2 0 10 -8 17 -17z m-2419 -27 c4 3 4 -4 1 -17 -5 -17 -3
-20 8 -14 11 7 12 6 2 -7 -7 -8 -10 -18 -6 -21 3 -4 3 -7 0 -7 -11 0 -29 40
-32 73 -4 31 -4 31 8 9 7 -12 16 -20 19 -16z m988 19 c7 -9 8 -15 2 -15 -5 0
-12 7 -16 15 -3 8 -4 15 -2 15 2 0 9 -7 16 -15z m-16 -48 c-11 -6 -22 -15 -26
-21 -5 -7 -8 -4 -8 6 0 19 29 40 44 31 5 -3 0 -10 -10 -16z m1496 2 c0 -5 -4
-9 -8 -9 -5 0 -9 7 -9 15 0 8 4 12 9 9 4 -3 8 -9 8 -15z m84 9 c-3 -5 -10 -6
-15 -3 -5 4 -9 4 -9 1 0 -2 -3 -12 -6 -21 -4 -9 -3 -15 2 -14 5 1 20 1 34 0
19 -1 22 -3 10 -11 -9 -5 -19 -5 -27 1 -8 8 -16 5 -25 -10 -7 -12 -16 -21 -21
-21 -4 0 -5 5 -2 10 6 9 -8 14 -27 11 -5 0 -8 6 -8 15 0 8 4 13 9 10 5 -3 12
1 15 10 3 9 13 14 20 11 8 -3 17 0 19 7 3 7 12 13 21 13 8 0 13 -4 10 -9z
m261 2 c3 -6 -1 -7 -9 -4 -18 7 -21 14 -7 14 6 0 13 -4 16 -10z m116 -23 c-6
-8 -7 -18 -3 -22 4 -5 1 -5 -6 -1 -10 6 -10 11 -1 22 6 8 14 14 16 14 3 0 0
-6 -6 -13z m-2995 -25 c-14 -14 -17 -14 -14 -2 3 17 20 31 27 24 3 -2 -3 -12
-13 -22z m2946 6 c-7 -7 -12 -8 -12 -2 0 14 12 26 19 19 2 -3 -1 -11 -7 -17z
m-462 8 c0 -11 -19 -15 -25 -6 -3 5 1 10 9 10 9 0 16 -2 16 -4z m-2513 -21 c0
-8 -4 -12 -9 -9 -5 3 -6 10 -3 15 9 13 12 11 12 -6z m1086 -6 c4 -16 3 -18 -9
-8 -7 6 -11 15 -8 20 8 13 11 11 17 -12z m-915 -14 c-3 -3 -9 2 -12 12 -6 14
-5 15 5 6 7 -7 10 -15 7 -18z m2832 5 c0 -5 -2 -10 -4 -10 -3 0 -8 5 -11 10
-3 6 -1 10 4 10 6 0 11 -4 11 -10z m-2970 -15 c11 -13 10 -14 -4 -9 -9 3 -16
10 -16 15 0 13 6 11 20 -6z m2811 1 c5 3 9 1 9 -5 0 -5 -4 -13 -10 -16 -5 -3
-10 -4 -10 -1 0 2 -2 10 -3 18 -2 7 -2 10 0 5 3 -4 9 -5 14 -1z m-38 -16 c3
-11 1 -18 -4 -14 -5 3 -9 12 -9 20 0 20 7 17 13 -6z m-1712 -7 c9 -9 7 -11 -5
-9 -9 1 -21 7 -27 13 -9 9 -7 11 5 9 9 -1 21 -7 27 -13z m1507 5 c-5 -14 -48
-21 -48 -7 0 5 4 8 9 4 5 -3 12 -1 16 5 9 14 28 13 23 -2z m-793 -18 c-3 -5
-12 -10 -18 -10 -7 0 -6 4 3 10 19 12 23 12 15 0z m52 -20 c4 -13 3 -13 -6 0
-8 11 -11 12 -11 2 0 -7 -4 -10 -10 -7 -5 3 -10 11 -10 16 0 16 33 6 37 -11z
m816 -51 c5 -20 5 -20 -13 -4 -11 10 -17 22 -14 26 8 13 21 3 27 -22z m-809 5
c3 -8 2 -12 -4 -9 -6 3 -10 10 -10 16 0 14 7 11 14 -7z m975 3 c8 -10 7 -14
-4 -14 -8 0 -15 6 -15 14 0 7 2 13 4 13 2 0 9 -6 15 -13z m219 -12 c-3 -3 -9
2 -12 12 -6 14 -5 15 5 6 7 -7 10 -15 7 -18z m-444 -1 c3 -8 2 -12 -4 -9 -6 3
-10 10 -10 16 0 14 7 11 14 -7z m266 -28 c0 -2 -8 -10 -17 -17 -16 -13 -17
-12 -4 4 13 16 21 21 21 13z m-1715 -16 c3 -5 2 -10 -4 -10 -5 0 -13 5 -16 10
-3 6 -2 10 4 10 5 0 13 -4 16 -10z m65 -80 c0 -5 -2 -10 -4 -10 -3 0 -8 5 -11
10 -3 6 -1 10 4 10 6 0 11 -4 11 -10z m44 -59 c3 -5 0 -11 -7 -14 -8 -3 -14 1
-14 9 0 16 13 19 21 5z m111 -11 c3 -5 1 -10 -4 -10 -6 0 -11 5 -11 10 0 6 2
10 4 10 3 0 8 -4 11 -10z m2525 -90 c0 -5 -2 -10 -4 -10 -3 0 -8 5 -11 10 -3
6 -1 10 4 10 6 0 11 -4 11 -10z m-1990 -36 c0 -8 -4 -14 -8 -14 -4 0 -8 9 -8
19 0 11 4 17 8 15 4 -3 8 -12 8 -20z m50 -9 c0 -12 -19 -12 -23 0 -4 9 -1 12
9 8 7 -3 14 -7 14 -8z"/>
<path d="M5935 5240 c-19 -8 -19 -9 3 -9 12 -1 22 4 22 9 0 6 -1 10 -2 9 -2 0
-12 -4 -23 -9z"/>
<path d="M5806 4585 c-9 -26 -7 -32 5 -12 6 10 9 21 6 23 -2 3 -7 -2 -11 -11z"/>
<path d="M5435 1990 c3 -5 11 -10 16 -10 6 0 7 5 4 10 -3 6 -11 10 -16 10 -6
0 -7 -4 -4 -10z"/>
<path d="M5320 1651 c0 -6 4 -13 10 -16 6 -3 7 1 4 9 -7 18 -14 21 -14 7z"/>
<path d="M5351 1591 c-11 -7 -10 -11 7 -20 17 -9 19 -8 15 9 -3 11 -6 20 -7
20 0 0 -7 -4 -15 -9z"/>
<path d="M5299 1567 c-5 -13 -4 -49 1 -52 4 -2 16 3 26 11 10 9 13 12 5 8 -10
-5 -13 -3 -8 9 3 9 0 18 -9 21 -8 3 -14 4 -15 3z"/>
<path d="M5394 1557 c-9 -24 6 -44 18 -22 7 11 6 21 -1 28 -7 7 -12 6 -17 -6z"/>
<path d="M5370 1535 c0 -5 5 -17 10 -25 5 -8 10 -10 10 -5 0 6 -5 17 -10 25
-5 8 -10 11 -10 5z"/>
<path d="M912 7098 c-6 -6 -31 -13 -54 -15 -24 -3 -45 -9 -46 -14 -3 -6 -10
-5 -18 2 -11 9 -18 9 -26 1 -6 -6 -17 -8 -24 -5 -8 3 -14 -1 -14 -8 0 -10 -3
-10 -12 -1 -15 15 -48 16 -48 1 0 -6 -8 -8 -19 -4 -11 3 -22 1 -26 -5 -5 -8
-11 -8 -21 1 -9 7 -14 8 -14 1 0 -6 -8 -11 -17 -11 -26 1 -127 -13 -132 -17
-2 -2 -12 1 -22 7 -12 6 -19 6 -19 0 0 -5 -17 -11 -37 -13 -20 -2 -38 -9 -41
-15 -2 -7 1 -13 8 -13 6 0 8 5 5 10 -3 6 -2 10 4 10 5 0 14 -7 19 -16 11 -20
13 -20 707 -39 66 -2 167 -6 225 -10 144 -11 260 -8 300 6 3 1 8 1 12 0 4 0 6
8 5 19 -1 11 -4 20 -7 21 -3 0 -16 2 -30 4 -47 5 -74 14 -82 27 -6 10 -10 10
-17 0 -6 -11 -9 -9 -13 5 -3 11 -12 20 -21 20 -9 0 -14 -4 -11 -8 2 -4 0 -10
-5 -13 -5 -3 -12 1 -15 9 -3 8 -9 15 -13 14 -21 -4 -33 2 -27 12 5 8 -6 9 -35
4 -34 -6 -41 -4 -41 10 0 9 -5 13 -10 10 -6 -4 -17 -2 -24 5 -19 15 -54 21
-61 9 -4 -5 -13 -6 -23 0 -11 6 -24 6 -34 0 -9 -5 -56 -8 -106 -6 -50 1 -88
-2 -85 -7 3 -5 0 -6 -8 -4 -8 3 -13 11 -11 17 3 14 -1 14 -16 -1z"/>
<path d="M666 6823 c-3 -3 -32 -6 -65 -6 -33 0 -58 -4 -55 -9 3 -4 -5 -4 -18
1 -21 8 -112 6 -201 -3 -21 -2 -48 -13 -60 -23 -13 -11 -17 -12 -10 -3 10 14
8 16 -15 14 -15 -1 -38 -2 -51 -3 -44 -2 -5 -28 46 -29 27 -1 73 -7 104 -12
31 -6 76 -10 100 -9 24 1 76 1 116 -1 40 -1 77 1 84 5 6 4 57 8 113 9 80 1
101 4 101 15 0 15 -35 29 -95 37 -19 3 -47 9 -62 14 -14 4 -29 6 -32 3z"/>
<path d="M138 6783 c7 -3 16 -2 19 1 4 3 -2 6 -13 5 -11 0 -14 -3 -6 -6z"/>
<path d="M2648 5708 c-10 -6 -8 -8 5 -8 9 0 20 0 24 -1 4 0 9 4 11 9 3 11 -23
11 -40 0z"/>
<path d="M2735 5690 c-3 -6 1 -7 9 -4 18 7 21 14 7 14 -6 0 -13 -4 -16 -10z"/>
<path d="M2590 5659 c-14 -4 -20 -8 -15 -8 6 -1 3 -6 -5 -11 -13 -8 -12 -10 3
-10 9 0 17 4 17 10 0 5 14 7 33 3 17 -3 30 -4 27 -2 -23 20 -38 25 -60 18z"/>
<path d="M2625 5620 c-4 -6 3 -10 14 -10 25 0 27 6 6 13 -8 4 -17 2 -20 -3z"/>
<path d="M2561 5413 c6 -7 15 -13 20 -13 5 0 6 6 3 13 -3 8 -11 14 -19 14 -11
0 -12 -4 -4 -14z"/>
<path d="M2508 5413 c7 -3 16 -2 19 1 4 3 -2 6 -13 5 -11 0 -14 -3 -6 -6z"/>
<path d="M2480 5383 c0 -13 41 -44 52 -40 9 4 7 6 -4 6 -11 1 -18 9 -18 19 0
10 -7 19 -15 19 -8 0 -15 -2 -15 -4z"/>
<path d="M2341 5204 c0 -11 3 -14 6 -6 3 7 2 16 -1 19 -3 4 -6 -2 -5 -13z"/>
<path d="M3591 5169 c-1 -9 6 -19 14 -23 9 -3 15 0 15 10 0 8 -4 13 -9 10 -5
-4 -12 0 -14 6 -4 8 -6 7 -6 -3z"/>
<path d="M3720 5147 c0 -9 4 -18 10 -22 15 -9 60 6 60 21 0 12 -4 12 -21 4
-15 -9 -24 -8 -35 1 -11 9 -14 8 -14 -4z"/>
<path d="M3910 5119 c0 -5 -4 -8 -9 -5 -5 3 -8 -6 -8 -19 0 -32 27 -33 53 -4
19 22 19 22 -8 15 -22 -5 -26 -3 -22 9 4 8 3 15 0 15 -3 0 -6 -5 -6 -11z"/>
<path d="M2633 5073 c9 -2 23 -2 30 0 6 3 -1 5 -18 5 -16 0 -22 -2 -12 -5z"/>
<path d="M3675 5049 c-4 -6 -3 -15 3 -21 6 -6 11 -4 15 6 7 18 -9 31 -18 15z"/>
<path d="M4146 4965 c-9 -26 -7 -32 5 -12 6 10 9 21 6 23 -2 3 -7 -2 -11 -11z"/>
<path d="M7470 4887 c0 -10 8 -17 18 -17 9 0 13 4 7 8 -5 4 -13 11 -17 16 -5
5 -8 2 -8 -7z"/>
<path d="M7690 4836 c0 -2 7 -7 16 -10 8 -3 12 -2 9 4 -6 10 -25 14 -25 6z"/>
<path d="M6684 4795 c-15 -11 -17 -16 -6 -26 10 -11 12 -10 12 4 0 10 5 14 15
11 8 -4 15 -1 15 4 0 19 -16 22 -36 7z"/>
<path d="M6825 4800 c-3 -5 -1 -10 4 -10 6 0 11 5 11 10 0 6 -2 10 -4 10 -3 0
-8 -4 -11 -10z"/>
<path d="M6827 4753 c-14 -13 -6 -23 17 -21 19 2 22 5 14 15 -12 14 -21 16
-31 6z"/>
<path d="M7756 4744 c-9 -22 3 -32 14 -14 12 19 12 30 1 30 -5 0 -12 -7 -15
-16z"/>
<path d="M7856 4747 c3 -10 9 -15 12 -12 3 3 0 11 -7 18 -10 9 -11 8 -5 -6z"/>
<path d="M6295 4740 c-3 -5 1 -10 10 -10 9 0 13 5 10 10 -3 6 -8 10 -10 10 -2
0 -7 -4 -10 -10z"/>
<path d="M7824 4715 c-3 -8 1 -22 10 -31 9 -8 14 -20 11 -25 -4 -5 -2 -9 3 -9
5 0 9 13 8 30 -1 17 -6 30 -14 30 -7 0 -10 5 -7 10 3 6 4 10 0 10 -3 0 -8 -7
-11 -15z"/>
<path d="M7920 4711 c0 -6 4 -13 10 -16 6 -3 7 1 4 9 -7 18 -14 21 -14 7z"/>
<path d="M7873 4704 c4 -4 2 -13 -4 -21 -9 -10 -8 -13 0 -13 7 0 9 -4 6 -10
-3 -5 -1 -10 6 -10 6 0 9 8 6 20 -3 10 0 21 6 23 6 2 2 7 -8 11 -11 4 -16 4
-12 0z"/>
<path d="M7905 4680 c-3 -5 -1 -10 4 -10 6 0 11 5 11 10 0 6 -2 10 -4 10 -3 0
-8 -4 -11 -10z"/>
<path d="M7969 4633 c-13 -16 -12 -17 4 -4 9 7 17 15 17 17 0 8 -8 3 -21 -13z"/>
<path d="M7890 4628 c0 -10 10 -15 30 -14 29 1 44 16 16 16 -8 0 -21 3 -30 6
-10 4 -16 1 -16 -8z"/>
<path d="M8150 4584 c0 -8 5 -12 10 -9 6 4 8 11 5 16 -9 14 -15 11 -15 -7z"/>
<path d="M8115 4511 c-8 -27 -4 -33 14 -22 10 6 11 14 3 26 -9 17 -10 16 -17
-4z"/>
<path d="M8118 4463 c6 -2 9 -10 6 -15 -4 -7 -2 -8 5 -4 13 9 5 26 -12 25 -9
0 -8 -2 1 -6z"/>
<path d="M8176 4432 c-3 -5 1 -9 9 -9 8 0 12 4 9 9 -3 4 -7 8 -9 8 -2 0 -6 -4
-9 -8z"/>
<path d="M8102 4380 c7 -10 14 -18 15 -16 6 6 -9 36 -18 36 -5 0 -4 -9 3 -20z"/>
<path d="M8333 4393 c9 -14 47 -24 47 -12 0 5 -4 9 -9 9 -5 0 -17 3 -27 7 -11
4 -15 3 -11 -4z"/>
<path d="M8190 4386 c0 -2 9 -6 20 -9 11 -3 18 -1 14 4 -5 9 -34 13 -34 5z"/>
<path d="M8970 4312 c-17 -8 -25 -32 -10 -32 6 0 10 5 10 11 0 5 5 7 10 4 6
-3 10 1 10 9 0 9 -1 16 -2 15 -2 0 -10 -3 -18 -7z"/>
<path d="M9136 4201 c-3 -5 1 -11 9 -14 9 -4 12 -1 8 9 -6 16 -10 17 -17 5z"/>
<path d="M9171 4183 c0 -4 4 -17 9 -28 8 -19 9 -19 9 2 1 12 -3 25 -9 28 -5 3
-10 3 -9 -2z"/>
<path d="M9310 4105 c0 -3 5 -15 10 -26 13 -23 32 -26 23 -2 -5 12 -3 14 7 8
8 -5 11 -3 8 6 -4 14 -48 26 -48 14z"/>
<path d="M9391 4092 c0 -7 -5 -11 -10 -8 -10 6 -25 -24 -16 -32 3 -3 5 -2 5 3
0 4 31 -25 70 -64 38 -39 74 -71 80 -71 5 0 10 -6 10 -12 0 -9 3 -9 9 1 8 12
12 12 25 2 13 -11 16 -11 16 0 0 11 2 11 8 2 5 -7 19 -10 35 -8 15 3 27 1 27
-4 0 -5 41 -9 90 -8 50 0 90 4 90 9 0 4 7 5 15 2 8 -4 15 -1 15 5 0 6 -4 11
-10 11 -5 0 -7 6 -4 14 5 12 -11 21 -68 40 -10 3 -18 12 -18 19 0 8 -7 14 -15
14 -8 0 -15 -5 -15 -10 0 -5 -7 -4 -15 3 -13 11 -13 15 -3 21 7 5 9 9 3 9 -14
-1 -51 -30 -47 -38 9 -18 -18 -10 -33 10 -11 14 -15 17 -12 6 4 -10 2 -20 -2
-23 -10 -6 -23 23 -16 35 6 10 -33 25 -54 21 -7 -1 -10 2 -7 7 3 5 -4 12 -15
15 -12 3 -18 10 -14 16 3 6 0 9 -8 5 -10 -4 -14 -15 -10 -35 4 -27 2 -29 -14
-20 -10 5 -26 20 -37 32 -18 21 -20 21 -32 5 -11 -16 -13 -15 -17 11 -2 15 -5
22 -6 15z m276 -144 c-3 -8 -6 -5 -6 6 -1 11 2 17 5 13 3 -3 4 -12 1 -19z m78
13 c3 -6 14 -8 25 -6 17 3 19 0 14 -23 -6 -25 -5 -26 8 -8 10 13 17 15 22 8 3
-6 -3 -16 -14 -22 -16 -9 -22 -8 -26 5 -7 18 -30 20 -37 3 -3 -7 -6 -1 -6 14
-1 14 -7 29 -13 31 -8 3 -7 6 4 6 9 1 19 -3 23 -8z"/>
<path d="M9641 4044 c0 -11 3 -14 6 -6 3 7 2 16 -1 19 -3 4 -6 -2 -5 -13z"/>
<path d="M9900 4040 c0 -6 -4 -9 -8 -6 -4 2 -9 -5 -9 -17 -2 -17 0 -19 7 -7 9
14 11 13 14 -10 0 -6 7 -14 14 -19 17 -10 17 -22 0 -32 -10 -6 -8 -13 10 -29
13 -12 29 -19 37 -16 7 2 15 1 17 -4 2 -5 35 -11 73 -14 39 -3 90 -10 115 -15
70 -16 70 -16 70 37 0 44 -2 49 -22 47 -28 -2 -59 15 -51 29 3 5 1 6 -5 2 -6
-3 -13 -2 -17 4 -4 6 -11 8 -16 5 -5 -4 -9 -1 -9 6 0 8 -4 8 -15 -1 -12 -10
-15 -10 -15 4 0 18 -8 20 -29 7 -10 -7 -19 -5 -26 6 -13 18 -39 8 -28 -10 3
-7 -3 -3 -15 7 -12 11 -22 15 -22 10 0 -5 -6 -2 -13 6 -15 18 -57 26 -57 10z
m215 -90 c3 -5 1 -10 -4 -10 -6 0 -11 5 -11 10 0 6 2 10 4 10 3 0 8 -4 11 -10z"/>
<path d="M9875 3927 c4 -32 4 -33 15 -17 13 20 12 27 -4 33 -9 4 -12 -2 -11
-16z"/>
<path d="M10136 3824 c-4 -9 -4 -19 -1 -22 2 -3 7 3 11 12 4 9 4 19 1 22 -2 3
-7 -3 -11 -12z"/>
<path d="M10202 3822 c-19 -6 -14 -36 8 -55 26 -22 25 -22 28 9 2 28 -16 53
-36 46z m25 -28 c-3 -3 -12 -4 -19 -1 -8 3 -5 6 6 6 11 1 17 -2 13 -5z"/>
</g>
</svg>
